<svg width="165" height="144" viewBox="0 0 165 144" fill="none" xmlns="http://www.w3.org/2000/svg">
<path fill-rule="evenodd" clip-rule="evenodd" d="M19.4163 28.9319C21.3843 18.6121 25.3658 8.78107 31.1332 0L54.5366 15.3715C50.7877 21.0792 48.1998 27.4694 46.9206 34.1772C45.6413 40.8851 45.6958 47.7792 47.0809 54.466C48.4661 61.1528 51.1547 67.5012 54.9933 73.149C58.8319 78.7967 63.7453 83.633 69.453 87.3819C75.1607 91.1307 81.5509 93.7187 88.2587 94.9979C94.9666 96.2771 101.861 96.2227 108.547 94.8375C115.234 93.4524 121.583 90.7638 127.23 86.9252C132.878 83.0866 137.715 78.1732 141.463 72.4655L164.867 87.837C159.099 96.618 151.659 104.177 142.97 110.083C134.281 115.988 124.514 120.125 114.227 122.255C103.94 124.386 93.3332 124.47 83.0134 122.502C72.6937 120.534 62.8626 116.553 54.0815 110.785C45.3004 105.018 37.7413 97.5773 31.8358 88.8885C25.9303 80.1997 21.7939 70.4327 19.663 60.1454C17.532 49.858 17.4482 39.2517 19.4163 28.9319Z" fill="url(#paint0_linear_4430:37936)"/>
<path d="M22.9514 45.8643L23.0811 47.4499L25.6319 47.6553L25.7454 49.0427L27.3524 49.1756L27.239 47.7882L29.2073 47.9465L29.3208 49.3339L30.9283 49.4718L30.8144 48.0794L33.3652 48.2849L33.2355 46.6992L30.6847 46.4938L30.5226 44.5118L33.0734 44.7172L32.9437 43.1316L30.3929 42.9262L30.2799 41.5437L28.6724 41.4058L28.7859 42.7932L26.8175 42.635L26.7041 41.2476L25.097 41.1146L25.2104 42.502L22.6597 42.2966L22.7893 43.8822L25.3401 44.0876L25.5022 46.0697L22.9514 45.8643ZM26.9472 44.2206L28.9155 44.3789L29.0776 46.3609L27.1093 46.2026L26.9472 44.2206Z" fill="white"/>
<path d="M24.5178 56.4324L26.2043 62.7282L27.9187 62.269L26.7892 58.0526L34.9099 55.8772L34.3528 53.7979L24.5178 56.4324Z" fill="white"/>
<path d="M29.9123 72.4319C30.889 74.5327 32.9349 75.1715 35.0673 74.1801C37.2132 73.1824 38.0389 71.2086 37.0622 69.1077C36.0855 67.0069 34.0441 66.3661 31.8982 67.3637C29.7658 68.3551 28.9355 70.3311 29.9123 72.4319ZM31.4041 71.7493C30.9535 70.78 31.6111 69.8712 32.8193 69.3095C34.0275 68.7478 35.1506 68.8287 35.6013 69.7979C36.0435 70.7492 35.3814 71.6601 34.1733 72.2218C32.9651 72.7835 31.8464 72.7005 31.4041 71.7493Z" fill="white"/>
<path d="M39.6672 80.4017C40.4776 79.8429 41.2862 79.9945 41.7751 80.696C42.2612 81.3935 42.0972 82.132 41.3275 82.6623L37.6484 85.2263L38.8594 86.9639L42.8484 84.1838C44.3086 83.1662 44.609 81.6843 43.6994 80.3791C43.0513 79.4491 42.1254 79.0945 41.1992 79.3219L41.148 79.2484L42.2534 78.4781L41.0993 76.8221L34.8343 81.1883L36.0452 82.9259L39.6672 80.4017Z" fill="white"/>
<path d="M43.3239 96.4511C44.8621 97.9995 46.6607 98.3991 48.0468 97.0221L53.5171 91.5875L52.035 90.0956L51.125 90.9996L51.069 90.9432C51.3101 90.3042 51.4118 89.3272 50.5113 88.4208C49.3304 87.2322 47.4078 87.145 45.5632 88.9776C43.7609 90.768 43.892 92.5789 45.1044 93.7993C45.9628 94.6634 46.8767 94.7156 47.5208 94.4681L47.5839 94.5316L46.5928 95.5162C45.8486 96.2555 45.0864 96.0667 44.4382 95.4142C43.7794 94.7511 43.7358 94.1288 43.9412 93.6794L42.3737 92.4755C41.6989 93.5033 41.8733 94.991 43.3239 96.4511ZM46.706 93.1542C45.9737 92.417 46.1598 91.4333 47.0944 90.5048C48.015 89.5903 49.0528 89.3441 49.7921 90.0883C50.5174 90.8184 50.3067 91.8407 49.3579 92.7832C48.4021 93.7328 47.4243 93.8772 46.706 93.1542Z" fill="white"/>
<path d="M57.4976 93.9269L60.0552 95.7089L55.2491 102.607L56.995 103.823L61.801 96.9254L64.3586 98.7074L65.3733 97.2512L58.5122 92.4707L57.4976 93.9269Z" fill="white"/>
<path d="M68.3577 110.314C70.0761 111.099 71.6159 110.791 72.4759 109.626L70.7478 108.695C70.3117 109.135 69.6883 109.184 69.0461 108.891C68.0828 108.451 67.7636 107.534 68.2365 106.499L68.2386 106.494L72.9689 108.654L73.2105 108.125C74.2887 105.765 73.3925 103.945 71.5564 103.107C69.5124 102.173 67.5244 103.02 66.5454 105.163C65.5395 107.366 66.2186 109.337 68.3577 110.314ZM68.7838 105.3C69.186 104.527 70.0766 104.169 70.9313 104.559C71.7679 104.941 72.0741 105.803 71.7007 106.632L68.7838 105.3Z" fill="white"/>
<path d="M77.7192 113.7L79.7575 114.275L80.9306 110.117C81.1857 109.212 82.0215 108.777 82.921 109.03C83.2033 109.11 83.5774 109.267 83.7513 109.383L84.2615 107.575C84.0918 107.48 83.8463 107.38 83.6406 107.322C82.8176 107.09 82.008 107.378 81.4835 108.212L81.407 108.19L81.7687 106.908L79.7926 106.35L77.7192 113.7Z" fill="white"/>
<path d="M87.9426 116.27L90.0523 116.457L90.4559 111.891C90.5304 111.049 91.1147 110.536 91.8179 110.598C92.5112 110.66 92.9347 111.176 92.8686 111.924L92.4492 116.668L94.4945 116.849L94.9051 112.204C94.9747 111.417 95.4727 110.922 96.2403 110.989C96.9138 111.049 97.3817 111.515 97.3069 112.361L96.8914 117.061L98.9961 117.247L99.4483 112.131C99.5941 110.482 98.6967 109.455 97.2804 109.33C96.1661 109.231 95.2491 109.724 94.8601 110.568L94.7809 110.561C94.6161 109.658 93.8881 109.03 92.8431 108.937C91.818 108.847 90.9924 109.323 90.5962 110.191L90.507 110.183L90.6257 108.841L88.615 108.663L87.9426 116.27Z" fill="white"/>
<path d="M106.574 116.935L108.708 116.652L108.155 112.482L112.487 111.907L113.04 116.077L115.169 115.794L113.829 105.701L111.7 105.983L112.253 110.148L107.921 110.723L107.368 106.559L105.234 106.842L106.574 116.935Z" fill="white"/>
<path d="M125.116 113.202C127.316 112.476 128.188 110.518 127.451 108.285C126.709 106.037 124.844 104.988 122.644 105.714C120.444 106.44 119.571 108.393 120.313 110.641C121.05 112.874 122.916 113.928 125.116 113.202ZM124.611 111.641C123.596 111.976 122.77 111.217 122.352 109.952C121.934 108.687 122.145 107.58 123.16 107.245C124.156 106.917 124.984 107.68 125.402 108.945C125.82 110.21 125.607 111.312 124.611 111.641Z" fill="white"/>
<path d="M131.613 99.2647L129.721 100.215L134.292 109.314L136.184 108.363L131.613 99.2647Z" fill="white"/>
<path d="M144.901 103.241C145.91 102.533 146.026 101.582 145.9 100.893L145.973 100.841L146.676 101.842L148.385 100.642L142.533 92.3103L140.804 93.5248L143.004 96.6573L142.951 96.6945C142.362 96.3488 141.424 96.0779 140.379 96.8123C139.008 97.7753 138.597 99.6556 140.106 101.804C141.575 103.895 143.477 104.241 144.901 103.241ZM144.481 101.476C143.631 102.074 142.636 101.643 141.87 100.552C141.11 99.4703 141.042 98.4057 141.901 97.8028C142.743 97.2112 143.715 97.5917 144.498 98.7064C145.281 99.8211 145.315 100.891 144.481 101.476Z" fill="white"/>
<defs>
<linearGradient id="paint0_linear_4430:37936" x1="63" y1="81.4185" x2="91" y2="37.4185" gradientUnits="userSpaceOnUse">
<stop stop-color="#7B61FF"/>
<stop offset="1" stop-color="#C4C4C4" stop-opacity="0"/>
</linearGradient>
</defs>
</svg>
