<?xml version="1.0" encoding="utf-8"?>
<!-- Generator: Adobe Illustrator 23.1.0, SVG Export Plug-In . SVG Version: 6.00 Build 0)  -->
<svg version="1.1" id="Layer_1" xmlns="http://www.w3.org/2000/svg" xmlns:xlink="http://www.w3.org/1999/xlink" x="0px" y="0px"
	 viewBox="0 0 500 443" style="enable-background:new 0 0 500 443;" xml:space="preserve">
<style type="text/css">
	.st0{fill:#E6F1FF;}
	.st1{fill:#F5F5F5;}
	.st2{fill:#007CFF;}
	.st3{fill:#1A2E35;}
	.st4{opacity:0.2;}
	.st5{opacity:0.2;fill:#FFFFFF;}
	.st6{opacity:0.4;fill:#FFFFFF;}
	.st7{opacity:0.8;fill:#FFFFFF;}
	.st8{fill:#FFFFFF;}
	.st9{opacity:0.3;fill:#007CFF;}
	.st10{opacity:0.5;fill:#007CFF;}
	.st11{opacity:0.6;fill:#FFFFFF;}
	.st12{fill:none;}
	.st13{fill:#FFC3BD;}
	.st14{fill:#FF847F;}
	.st15{opacity:0.3;}
	.st16{fill:#FFB570;}
	.st17{fill:#FF8935;}
	.st18{fill:#FF8B7B;}
	.st19{fill:#FF5551;}
	.st20{fill:#CD5B51;}
	.st21{fill:#903C38;}
	.st22{fill:#E1E1E1;}
	.st23{fill:#FAFAFA;}
	.st24{fill:#E67B62;}
	.st25{opacity:0.7;fill:#1A2E35;}
	.st26{fill:#D54C38;}
	.st27{opacity:0.5;fill:#FFFFFF;}
</style>
<path class="st0" d="M355.6,156.7C259.9,159,94.2-83.6,24.3,39.6c-52.6,92.8,110.8,337.8,199.3,323.9c39.5-6.2,36.6-50.2,75.3-58.7
	c57.3-12.6,117.5,61.4,165.4,0c25.7-33,40.4-137.2-2.5-164.4C436.7,124.4,371.9,156.3,355.6,156.7z"/>
<ellipse id="_x3C_Path_x3E__355_" class="st1" cx="249.7" cy="420.9" rx="209.3" ry="12.2"/>
<g>
	<g>
		<g>
			<g>
				
					<rect x="158" y="223.9" transform="matrix(-1 -1.224647e-16 1.224647e-16 -1 574.3762 457.2003)" class="st2" width="258.5" height="9.4"/>
			</g>
		</g>
		<polygon class="st3" points="392.3,418.9 389.3,418.9 374.9,233.3 381.9,233.3 		"/>
		<polygon class="st3" points="420.8,418.9 417.8,418.9 403.4,233.3 410.5,233.3 		"/>
		<polygon class="st3" points="182.1,418.9 185.1,418.9 199.5,233.3 192.4,233.3 		"/>
		<polygon class="st3" points="153.6,418.9 156.6,418.9 171,233.3 163.9,233.3 		"/>
	</g>
	<g>
		<path class="st2" d="M377,170.6c-7.5-3.2-18.2-12.7-9.8-22.5C372.1,142.5,377,170.6,377,170.6z"/>
		<g>
			<path class="st2" d="M389,186.3C388.9,186.3,388.9,186.3,389,186.3c-0.4-0.1-0.6-0.3-0.5-0.6c0.6-3.5-0.3-7.1-1.2-10.9
				c-1.8-7.5-3.6-15.3,5.8-22.9c0.2-0.2,0.6-0.2,0.8,0.1c0.2,0.2,0.2,0.6-0.1,0.8c-8.8,7.1-7.2,14.2-5.4,21.8
				c0.9,3.7,1.8,7.6,1.2,11.3C389.5,186.1,389.2,186.3,389,186.3z"/>
			<path class="st4" d="M389,186.3C388.9,186.3,388.9,186.3,389,186.3c-0.4-0.1-0.6-0.3-0.5-0.6c0.6-3.5-0.3-7.1-1.2-10.9
				c-1.8-7.5-3.6-15.3,5.8-22.9c0.2-0.2,0.6-0.2,0.8,0.1c0.2,0.2,0.2,0.6-0.1,0.8c-8.8,7.1-7.2,14.2-5.4,21.8
				c0.9,3.7,1.8,7.6,1.2,11.3C389.5,186.1,389.2,186.3,389,186.3z"/>
		</g>
		<g>
			<path class="st2" d="M396,185.7c-0.1,0-0.1,0-0.2,0c-0.3-0.1-0.4-0.4-0.3-0.7c2.3-6.6,4.4-12.2,6.5-16.6c-2.5-4-5-9.6-7.7-16.7
				c-0.1-0.3,0-0.6,0.3-0.7c0.3-0.1,0.6,0,0.7,0.3c2.8,7.3,5.2,12.4,7.2,15.9c4-8.4,7.4-12.5,10.1-12.1c2.1,0.3,3.4,3.3,3.5,8
				c0.1,5.7-1.7,11.7-5.4,12.4c-2.4,0.5-5.2-1.6-8.1-6c-1.8,4-3.8,9.2-6.1,15.9C396.4,185.6,396.2,185.7,396,185.7z M403.2,168.3
				c3.7,5.8,6.2,6.4,7.4,6.1c2.9-0.6,4.6-6.2,4.5-11.3c-0.1-3.9-1.1-6.7-2.6-6.9C411.5,156,408.5,156.8,403.2,168.3z"/>
			<path class="st5" d="M396,185.7c-0.1,0-0.1,0-0.2,0c-0.3-0.1-0.4-0.4-0.3-0.7c2.3-6.6,4.4-12.2,6.5-16.6c-2.5-4-5-9.6-7.7-16.7
				c-0.1-0.3,0-0.6,0.3-0.7c0.3-0.1,0.6,0,0.7,0.3c2.8,7.3,5.2,12.4,7.2,15.9c4-8.4,7.4-12.5,10.1-12.1c2.1,0.3,3.4,3.3,3.5,8
				c0.1,5.7-1.7,11.7-5.4,12.4c-2.4,0.5-5.2-1.6-8.1-6c-1.8,4-3.8,9.2-6.1,15.9C396.4,185.6,396.2,185.7,396,185.7z M403.2,168.3
				c3.7,5.8,6.2,6.4,7.4,6.1c2.9-0.6,4.6-6.2,4.5-11.3c-0.1-3.9-1.1-6.7-2.6-6.9C411.5,156,408.5,156.8,403.2,168.3z"/>
		</g>
		<path class="st2" d="M387.2,182.2c-0.2,0-0.4-0.1-0.5-0.3c-0.6-1.2-2-2.2-3.6-3.4c-3.8-2.9-9.1-6.8-6.6-16.4
			c0.1-0.3,0.4-0.5,0.7-0.4c0.3,0.1,0.5,0.4,0.4,0.7c-2.3,8.9,2.4,12.5,6.2,15.3c1.7,1.3,3.1,2.4,3.9,3.8c0.1,0.3,0,0.6-0.2,0.7
			C387.4,182.2,387.3,182.2,387.2,182.2z"/>
		<path class="st2" d="M401.3,182.7c-0.2,0-0.4-0.1-0.5-0.2c-0.2-0.3-0.1-0.6,0.2-0.8c3.6-2.4,2.8-7.7,1.9-13.3
			c-1.2-7.7-2.5-16.4,7.9-18.6c0.3-0.1,0.6,0.1,0.6,0.4c0.1,0.3-0.1,0.6-0.4,0.6c-9.4,2-8.2,9.4-7,17.3c0.9,6,1.8,11.6-2.4,14.4
			C401.5,182.7,401.4,182.7,401.3,182.7z"/>
		<g>
			<path class="st2" d="M390,177.5c12.4,0,22.5,1,22.5,2.3c0,7.3-4.4,20-6,34.1c-0.7,5.7-5.5,10-11.2,10h-10.6
				c-5.7,0-10.5-4.3-11.2-10c-1.6-14.2-6-26.9-6-34.1C367.5,178.6,377.5,177.5,390,177.5z"/>
			<path class="st6" d="M390,177.5c12.4,0,22.5,1,22.5,2.3c0,7.3-4.4,20-6,34.1c-0.7,5.7-5.5,10-11.2,10h-10.6
				c-5.7,0-10.5-4.3-11.2-10c-1.6-14.2-6-26.9-6-34.1C367.5,178.6,377.5,177.5,390,177.5z"/>
		</g>
		<path class="st2" d="M409.2,150.7c9,2,33.3-3.4,23.6-14.1C427.2,130.4,409.2,150.7,409.2,150.7z"/>
		<g>
			<path class="st2" d="M391.9,153.5c8.9-2.3,28.1-18.1,14.7-23.3C398.7,127.2,391.9,153.5,391.9,153.5z"/>
			<path class="st4" d="M391.9,153.5c8.9-2.3,28.1-18.1,14.7-23.3C398.7,127.2,391.9,153.5,391.9,153.5z"/>
		</g>
		<path class="st2" d="M375.9,167.6c9.1-8.2,19.7-26.6,3.2-36.4C369.6,125.4,375.9,167.6,375.9,167.6z"/>
		<g>
			<path class="st2" d="M395.9,154.6c-8.8-7.9-15.3-34-3.1-35.1C403.6,118.4,395.9,154.6,395.9,154.6z"/>
			<path class="st5" d="M395.9,154.6c-8.8-7.9-15.3-34-3.1-35.1C403.6,118.4,395.9,154.6,395.9,154.6z"/>
		</g>
	</g>
	<g>
		<polygon class="st2" points="313.9,169.9 284.2,169.9 293.8,223.9 330.9,223.9 		"/>
		<polygon class="st4" points="313.9,169.9 284.2,169.9 289.5,199.9 322.4,196.8 		"/>
		
			<rect x="189.9" y="99.9" transform="matrix(5.168259e-02 -0.9987 0.9987 5.168259e-02 88.7182 294.3797)" class="st2" width="18.9" height="1.1"/>
		
			<rect x="194.3" y="120.6" transform="matrix(5.178229e-02 -0.9987 0.9987 5.178229e-02 67.0094 312.9164)" class="st2" width="7.9" height="1.1"/>
		<path class="st2" d="M368,191.5H205.2c-4.1,0-7.2-3.3-7-7.4l5.2-100.8c0.2-4.1,3.7-7.4,7.8-7.4H374c4.1,0,7.2,3.3,7,7.4
			l-5.2,100.8C375.6,188.1,372.1,191.5,368,191.5z"/>
		<path class="st7" d="M205.5,187.1c-1.7,0-3-1.4-2.9-3.1l5.2-100.8c0.1-1.7,1.5-3.1,3.2-3.1h162.8c1.7,0,3,1.4,2.9,3.1l-5.2,100.8
			c-0.1,1.7-1.5,3.1-3.2,3.1H205.5z"/>
		<g>
			<polygon class="st8" points="264.3,80.2 261.5,133.7 317.8,133.7 320.6,80.2 			"/>
			<path class="st9" d="M373.8,80.2h-53.2l-2.8,53.5h56.3l2.6-50.4C376.8,81.6,375.5,80.2,373.8,80.2z"/>
			<path class="st10" d="M205.2,133.7l-2.6,50.4c-0.1,1.7,1.2,3.1,2.9,3.1h53.2l2.8-53.5H205.2z"/>
			<polygon class="st11" points="261.5,133.7 258.7,187.1 315,187.1 317.8,133.7 			"/>
			<path class="st12" d="M317.8,133.7l-2.8,53.5h53.2c1.7,0,3.1-1.4,3.2-3.1l2.6-50.4H317.8z"/>
		</g>
		<g>
			<g>
				<path class="st12" d="M225.1,122.1c0-0.1,0-0.2,0-0.3c0-0.2,0-0.5,0-0.8c0-0.1,0-0.2,0-0.2c0-0.1,0-0.1,0-0.2
					c-1.2-0.4-2.1-1.1-2.9-2c0,0,0,0,0,0c-1,1.8-1.8,3.3-2.1,5.2c1.5-0.4,3.1-0.8,4.7-1C225,122.6,225.1,122.3,225.1,122.1z"/>
				<path class="st12" d="M240.9,115.2c-0.1,0-0.3,0.1-0.4,0.1c-0.1,0.5-0.1,1-0.2,1.5c0.2-0.4,0.4-0.9,0.7-1.3
					C241,115.4,241,115.3,240.9,115.2z"/>
				<path class="st3" d="M220.8,131.6c-2.8-1-2.2-3.1-0.9-4.8c-0.1-1.1-0.1-2,0-2.9c-5.9,1.8-11.2,5-14.7,9.6l0,0.1h16.2
					c0-0.1-0.1-0.3-0.1-0.4C221.1,132.7,220.9,132.1,220.8,131.6z"/>
				<path class="st3" d="M221.3,125.3c1.5-1.2,2.7-0.4,3.6-2.3c0-0.1,0-0.1,0-0.2c-1.6,0.2-3.2,0.6-4.7,1c-0.1,0.8-0.2,1.7-0.1,2.7
					C220.5,126,220.9,125.6,221.3,125.3z"/>
				<path class="st3" d="M261.5,133.2c-1.9-4.6-5.9-7-10.8-8.9c-2.9-1.1-6.3-1.7-9.8-2c0.2,0.5,0.5,1,0.9,1.4
					c0.1,1.8-1.5,3.6-3.9,5.1c0.2,1.3,0.6,2.7,1.1,4.4c0.1,0.2,0.1,0.3,0.1,0.5h22.4L261.5,133.2z"/>
				<path class="st3" d="M237.6,129c-3.6,2.2-9,3.6-14,3.2c-1-0.1-1.8-0.3-2.5-0.5c0.1,0.5,0.3,1,0.5,1.6c0.1,0.2,0.1,0.3,0.1,0.5
					h17.1c0-0.1-0.1-0.3-0.1-0.4C238.2,131.6,237.8,130.2,237.6,129z"/>
				<path class="st13" d="M225.1,121.8c0-0.2,0-0.5,0-0.8C225.2,121.3,225.2,121.5,225.1,121.8z"/>
				<path class="st13" d="M237.8,128.8c2.5-1.5,4-3.4,3.9-5.1c-0.4-0.4-0.7-0.9-0.9-1.4c-0.5-1.3-0.7-2.9-0.6-4.7
					c-0.2,0.4-0.4,0.8-0.6,1.1C238,121.7,236.9,123.8,237.8,128.8z"/>
				<path class="st13" d="M225.2,120.6C225.1,120.6,225.1,120.6,225.2,120.6c0,0.1,0,0.1,0,0.2C225.2,120.7,225.2,120.7,225.2,120.6
					z"/>
				<path class="st13" d="M240.3,115.3c-1.5,2.1-3.3,3.6-5.7,4.5c-0.2,0.1-0.3,0.1-0.5,0.2c-3.3,2.4-6.9,3.4-9,2.4
					c0-0.1,0-0.2,0-0.2c0,0.2-0.1,0.5-0.2,0.7c0,0.1,0,0.1,0,0.2c-0.9,1.9-2.1,1.1-3.6,2.3c-0.4,0.3-0.8,0.7-1.2,1.2
					c0.1,1.4,0.4,3.1,1,5.2c0.7,0.2,1.5,0.4,2.5,0.5c5,0.5,10.4-1,14-3.2c-1-5.2,0.1-7.3,1.9-10.4c0.3-0.5,0.6-1.1,0.9-1.7
					c0-0.5,0.1-1,0.2-1.5C240.5,115.3,240.4,115.3,240.3,115.3z"/>
				<path class="st13" d="M220.8,131.6c-0.5-1.9-0.8-3.4-0.9-4.8C218.6,128.4,218,130.5,220.8,131.6z"/>
				<path class="st8" d="M221.1,131.7c-0.6-2.1-0.9-3.8-1-5.2c-0.1-1,0-1.9,0.1-2.7c0.3-1.9,1.1-3.4,2.1-5.2c0,0,0,0,0,0
					c-0.1-0.1-0.1-0.2-0.2-0.2c0,0-0.1,0.1-0.1,0.1c-1,1.9-1.8,3.4-2.1,5.4c-0.1,0.9-0.1,1.8,0,2.9c0.1,1.3,0.4,2.9,0.9,4.8
					c0.2,0.6,0.3,1.1,0.5,1.7c0,0.1,0.1,0.3,0.1,0.4h0.3c0-0.2-0.1-0.3-0.1-0.5C221.4,132.7,221.2,132.2,221.1,131.7z"/>
				<path class="st4" d="M225.2,120.8c0,0.1,0,0.2,0,0.2C225.2,121,225.2,120.9,225.2,120.8z"/>
				<path class="st4" d="M225.1,122.1c0-0.1,0-0.2,0-0.3C225.1,121.9,225.1,122,225.1,122.1z"/>
				<path class="st13" d="M225.2,120.8c0,0.1,0,0.2,0,0.2c0,0.3,0,0.5,0,0.8c0,0.1,0,0.2,0,0.3c0,0.1,0,0.2,0,0.2c2.1,1,5.8,0,9-2.4
					c-3.8,1.3-6.8,1.5-8.9,0.7C225.2,120.7,225.2,120.7,225.2,120.8z"/>
				<path class="st4" d="M225.2,120.8c0,0.1,0,0.2,0,0.2c0,0.3,0,0.5,0,0.8c0,0.1,0,0.2,0,0.3c0,0.1,0,0.2,0,0.2c2.1,1,5.8,0,9-2.4
					c-3.8,1.3-6.8,1.5-8.9,0.7C225.2,120.7,225.2,120.7,225.2,120.8z"/>
				<path class="st3" d="M223.4,98.7c0,0-0.1,0.1-0.1,0.1c-0.1,0.5-0.2,0.9-0.3,1.4c0.3-0.7,0.6-1.3,1-1.9
					C223.8,98.4,223.6,98.5,223.4,98.7z"/>
				<path class="st3" d="M231.1,90.9c-0.3-0.2-0.5-0.4-0.7-0.8c-2.9,0.6-5.6,3.8-6.8,7.4c0.3-0.2,0.7-0.4,1-0.5
					C226.3,94.4,228.5,92.2,231.1,90.9z"/>
				<path class="st13" d="M225.1,120.6C225.1,120.6,225.1,120.6,225.1,120.6c2.2,0.8,5.1,0.6,9-0.7c0.2-0.1,0.3-0.1,0.5-0.2
					c2.4-0.9,4.2-2.4,5.7-4.5c-0.2,0-0.4,0-0.5,0c-2.7,0.1-2.5-2.1-1.1-4.3c0.4-0.7,1-1.5,1.6-2.2c-1.7-2.3-2.2-6.1,0.3-8.7
					c3.8-4,2.3-7.3-0.6-8c-2.6-0.7-6.9,0.2-8.8-1.2c-2.6,1.2-4.8,3.5-6.5,6.1c0.8-0.3,1.5-0.2,1.6-0.1c0.2,0,0.3,0.2,0.3,0.4
					s-0.3,0.4-0.5,0.3c0,0-1-0.2-2.1,0.6c-0.4,0.6-0.7,1.3-1,1.9c-1.5,3.2-2.4,6.7-2.6,9.6c-0.3,3.5,0.2,6.6,1.8,8.6
					c0.1,0.1,0.1,0.2,0.2,0.2C223,119.5,224,120.2,225.1,120.6z M228.1,102.2l-1.6,5.6c0,0-1.8,0.8-3.6-0.8
					C224.6,104,228.1,102.2,228.1,102.2z M232.7,102.2c0.4,0.1,0.6,0.7,0.4,1.4c-0.2,0.6-0.7,1.1-1.1,0.9c-0.4-0.1-0.6-0.7-0.4-1.4
					C231.8,102.5,232.3,102.1,232.7,102.2z M231.4,109.2c-0.3,0.3-0.7,0.5-1,0.7c-2.3,1.2-4.3,0.6-4.4,0.6c-0.1,0-0.2-0.1-0.1-0.2
					c0-0.1,0.2-0.2,0.3-0.1c0,0,2.6,0.7,5-1.2c0.1-0.1,0.2-0.1,0.3,0C231.5,109,231.5,109.1,231.4,109.2z M234.6,104.3
					c0,0,1.5-0.2,2.3,0.8C235.6,105,234.6,104.3,234.6,104.3z M234.7,103.6c0,0,1.6-0.5,2.8,0.2
					C235.9,104.1,234.7,103.6,234.7,103.6z M236.7,99.2c0.1,0.2-0.1,0.4-0.3,0.5c-0.1,0-0.1,0-0.2,0c-0.1,0-0.2-0.1-0.3-0.3
					c-0.4-1.7-1.7-2.1-1.8-2.1c-0.2-0.1-0.3-0.3-0.2-0.5c0.1-0.2,0.3-0.3,0.5-0.3C234.5,96.6,236.2,97.1,236.7,99.2z M224.3,101
					c0.2-0.6,0.7-1.1,1.1-0.9c0.4,0.1,0.6,0.7,0.4,1.4c-0.2,0.6-0.7,1.1-1.1,0.9C224.3,102.3,224.1,101.7,224.3,101z"/>
				<path class="st3" d="M231.1,90.9c1.9,1.4,6.3,0.5,8.8,1.2c3,0.7,4.5,4.1,0.6,8c-2.5,2.6-2,6.4-0.3,8.7c1.2-1.3,2.6-2.4,4.2-1.7
					c1.2,0.5,1.8,1.4,1.9,2.5c3.7-2.4,7.4-7.2,3.8-9c-0.4-0.1-0.8-0.2-1.4-0.4c0.6,0.1,1.1,0.1,1.5,0c3.1-2.8-1-8-4.7-10.1
					c1.8-0.5,0.8-1.9,0.8-1.9s0.3,1.8-4.5-0.7c-4.8-2.5-12.8,0.1-11.5,2.6c0,0,0,0,0,0C230.6,90.5,230.9,90.7,231.1,90.9z"/>
				<path class="st3" d="M248.8,100.3c0.5,0.2,1,0.3,1.4,0.4c2.9,0.6,2.2-1.8,2.2-1.8s-0.6,1.2-2.1,1.5
					C249.9,100.4,249.4,100.4,248.8,100.3z"/>
				<path class="st3" d="M231.2,108.9c-2.5,1.9-5,1.2-5,1.2c-0.1,0-0.2,0-0.3,0.1c0,0.1,0,0.2,0.1,0.2c0.1,0,2.2,0.6,4.4-0.6
					c0.3-0.2,0.7-0.4,1-0.7c0.1-0.1,0.1-0.2,0-0.3C231.4,108.8,231.2,108.8,231.2,108.9z"/>
				<path class="st13" d="M234.7,103.6c0,0,1.2,0.4,2.8,0.2C236.3,103.1,234.7,103.6,234.7,103.6z"/>
				<path class="st4" d="M234.7,103.6c0,0,1.2,0.4,2.8,0.2C236.3,103.1,234.7,103.6,234.7,103.6z"/>
				<path class="st13" d="M234.6,104.3c0,0,1,0.7,2.3,0.8C236.2,104.1,234.6,104.3,234.6,104.3z"/>
				<path class="st4" d="M234.6,104.3c0,0,1,0.7,2.3,0.8C236.2,104.1,234.6,104.3,234.6,104.3z"/>
				<path class="st13" d="M244.5,107.2c-1.6-0.6-3,0.4-4.2,1.7c-0.6,0.7-1.1,1.5-1.6,2.2c-1.4,2.2-1.7,4.4,1.1,4.3
					c0.2,0,0.4,0,0.5,0c0.1,0,0.1,0,0.2,0c0.1,0,0.3,0,0.4-0.1c0-0.4,0.2-1.1,0.5-1.9c0.1-0.1,0.1-0.3,0.2-0.4
					c-0.4-0.3-0.6-1-0.3-1.7c0.3-0.7,1.1-1.1,1.7-0.9c0.6,0.2,0.8,1,0.4,1.8c-0.1,0.2-0.2,0.4-0.4,0.5c-0.1,0.3-0.2,0.7-0.4,1.1
					c-0.2,0.5-0.5,0.8-0.7,1.1c1.2-0.4,2.3-1.1,3.3-2.1c0.9-0.9,1.3-2.1,1.2-3.2C246.3,108.6,245.7,107.6,244.5,107.2z"/>
				<path class="st8" d="M243,111.5c0.2,0.1,0.2,0.5,0.1,1.1c0.1-0.1,0.3-0.3,0.4-0.5c0.3-0.7,0.2-1.5-0.4-1.8
					c-0.6-0.2-1.3,0.2-1.7,0.9c-0.3,0.7-0.2,1.3,0.3,1.7C242.2,112,242.7,111.4,243,111.5z"/>
				<path class="st8" d="M243.1,112.7c0.2-0.6,0.1-1.1-0.1-1.1c-0.3-0.1-0.9,0.5-1.4,1.4c-0.1,0.1-0.1,0.2-0.2,0.4
					c-0.4,0.8-0.6,1.5-0.5,1.9c0,0.1,0,0.2,0.1,0.3c0.1-0.2,0.2-0.4,0.3-0.6c0-0.1,0.1-0.1,0.2-0.1c0.1,0,0.1,0.1,0.1,0.2
					c-0.1,0.2-0.2,0.4-0.3,0.6c0.2,0,0.5-0.3,0.7-0.6c0.2-0.3,0.5-0.7,0.7-1.1C242.9,113.4,243,113,243.1,112.7z"/>
				<path class="st8" d="M237.8,128.8c-1-5,0.2-7.1,1.8-10.2c0.2-0.4,0.4-0.7,0.6-1.1c0.3-0.6,0.6-1.2,1-1.9
					c0.1-0.2,0.2-0.4,0.3-0.6c0-0.1,0-0.1-0.1-0.2c-0.1,0-0.1,0-0.2,0.1c-0.1,0.2-0.2,0.4-0.3,0.6c-0.2,0.5-0.4,0.9-0.7,1.3
					c-0.3,0.6-0.6,1.2-0.9,1.7c-1.7,3.1-2.9,5.3-1.9,10.4c0.2,1.2,0.6,2.7,1.1,4.3c0,0.1,0.1,0.3,0.1,0.4h0.3c0-0.2-0.1-0.3-0.1-0.5
					C238.5,131.5,238.1,130.1,237.8,128.8z"/>
				<path class="st3" d="M232,104.5c0.4,0.1,0.9-0.3,1.1-0.9c0.2-0.6,0-1.2-0.4-1.4c-0.4-0.1-0.9,0.3-1.1,0.9
					C231.4,103.8,231.6,104.4,232,104.5z"/>
				<path class="st3" d="M224.7,102.4c0.4,0.1,0.9-0.3,1.1-0.9c0.2-0.6,0-1.2-0.4-1.4c-0.4-0.1-0.9,0.3-1.1,0.9
					C224.1,101.7,224.3,102.3,224.7,102.4z"/>
				<path class="st14" d="M226.5,107.8l1.6-5.6c0,0-3.5,1.8-5.2,4.7C224.7,108.6,226.5,107.8,226.5,107.8z"/>
				<path class="st3" d="M233.9,96.8c-0.1,0.2,0,0.4,0.2,0.5c0.1,0,1.4,0.5,1.8,2.1c0,0.1,0.1,0.2,0.3,0.3c0.1,0,0.1,0,0.2,0
					c0.2-0.1,0.3-0.3,0.3-0.5c-0.5-2.1-2.2-2.6-2.3-2.6C234.2,96.5,234,96.6,233.9,96.8z"/>
				<path class="st3" d="M223.9,98.3c1-0.7,2-0.6,2.1-0.6c0.2,0,0.4-0.1,0.5-0.3s-0.1-0.4-0.3-0.4c0,0-0.7-0.1-1.6,0.1
					c-0.3,0.1-0.7,0.3-1,0.5c-0.3,0.2-0.5,0.4-0.8,0.6c-0.2,0.2-0.2,0.4,0,0.5c0.1,0.1,0.1,0.1,0.2,0.1c0.1,0,0.2,0,0.2,0
					c0,0,0.1,0,0.1-0.1C223.6,98.5,223.8,98.4,223.9,98.3z"/>
			</g>
			<g>
				<path class="st3" d="M287.9,119.7c0-0.3-0.1-0.7-0.2-1.1c0-0.2-0.1-0.3-0.1-0.5c-0.1-0.2-0.1-0.4-0.2-0.6
					c-2.4-0.1-4.6-1-6.2-2.6c0.4,3.7-1.5,6.5-4.4,6.3c1.1,2.5,4.3,4.1,9.8,3.3C288,123.3,288.2,121.5,287.9,119.7z"/>
				<path class="st3" d="M278.7,107.6c0.3-3,1.2-6.6,2.8-9.9c-0.2-0.3-0.3-0.6-0.3-0.6l0.5,0.3c0.6-1.2,1.3-2.3,2-3.3
					c-0.5,0-1,0.2-1.6,0.6c-0.1,0.1-0.2,0.1-0.3,0.1c-0.1,0-0.2-0.1-0.2-0.1c-0.1-0.2-0.1-0.4,0.1-0.5c1-0.7,1.9-0.8,2.6-0.8
					c0.8-0.9,1.6-1.8,2.5-2.5c-0.5,0-0.9,0.1-1.3,0.3c5.9-5.4,14-4.5,19.9,2c-0.1,0.1-0.3,0.2-0.4,0.3c3.6,2.2-0.1,24.7-6.1,25.6
					c-1.1,0.2-2.2,0.1-3.1-0.2c0.3,2,0.8,3.8,1.7,5c1.4-0.9,2.6-2.2,3.1-3.7c2.3,1.3,6.5,1.4,9.3-3c-3.3,1.2-7.2-1.5-4-6.4
					c4.7-7.4,4.8-15.3,1-18.5c0,0,1.3-7.8-8.5-8c-8-0.2-13.6,4.7-13.6,4.7c-5.9-0.8-8.1,9.6-7.6,16.7c0.4,5.5-2,5.1-2.7,4.5
					c-0.3,3.4,2.3,4.4,5.8,3.6C279,112,278.5,110,278.7,107.6z"/>
				<path class="st2" d="M302.2,124.6c-1.3,0-2.6,0.1-4,0.1c0,0-1.5,0.7-3.7,2c-1.9,1.5-4.6,3.9-7.3,6.9h22.6c0-0.1,0-0.1,0-0.2
					C310.6,128.7,307,124.6,302.2,124.6z"/>
				<path class="st15" d="M302.2,124.6c-1.3,0-2.6,0.1-4,0.1c0,0-1.5,0.7-3.7,2c-1.9,1.5-4.6,3.9-7.3,6.9h22.6c0-0.1,0-0.1,0-0.2
					C310.6,128.7,307,124.6,302.2,124.6z"/>
				<path class="st2" d="M283.7,126.4c-1.6,0.3-3.2,0.7-4.7,1.1c-3.4,0.9-6.2,3.2-7.6,6.2h8c0.3-2.4,1.2-4.1,2.3-5.3
					C282.6,127,283.7,126.4,283.7,126.4z"/>
				<path class="st15" d="M283.7,126.4c-1.6,0.3-3.2,0.7-4.7,1.1c-3.4,0.9-6.2,3.2-7.6,6.2h8c0.3-2.4,1.2-4.1,2.3-5.3
					C282.6,127,283.7,126.4,283.7,126.4z"/>
				<path class="st8" d="M281.6,128.4c-1,1.2-2,2.9-2.3,5.3h0.8C280.2,131.3,280.9,129.6,281.6,128.4z"/>
				<path class="st8" d="M294.5,126.8c-2.4,1.5-5.7,3.8-8.8,6.9h1.5C290,130.7,292.7,128.3,294.5,126.8z"/>
				<path class="st16" d="M287.7,118.6c0-0.2-0.1-0.3-0.1-0.5C287.6,118.3,287.7,118.5,287.7,118.6z"/>
				<path class="st16" d="M298.2,124.8c-0.3-0.3-0.6-0.6-0.9-0.9c-0.9-1.2-1.5-3-1.7-5c-1.4-0.4-2.7-1.2-3.7-2.1c0,0-0.1,0-0.1,0
					c-0.9,1.4-2.5,2.6-3.8,3c0,0,0,0,0-0.1c0.3,1.8,0,3.6-1.3,4.9c-0.7,0.7-1.6,1.3-2.9,1.8c0,0-1.1,0.6-2,2
					c-0.8,1.2-1.5,2.9-1.5,5.3h5.6c3-3.1,6.3-5.4,8.8-6.9C296.7,125.5,298.2,124.8,298.2,124.8z"/>
				<path class="st3" d="M287.4,117.6c0.1,0.2,0.1,0.4,0.2,0.6C287.6,118,287.5,117.8,287.4,117.6
					C287.4,117.6,287.4,117.6,287.4,117.6z"/>
				<path class="st4" d="M287.4,117.6c0.1,0.2,0.1,0.4,0.2,0.6C287.6,118,287.5,117.8,287.4,117.6
					C287.4,117.6,287.4,117.6,287.4,117.6z"/>
				<path class="st3" d="M287.9,119.7c-0.1-0.3-0.1-0.7-0.2-1.1C287.8,119,287.9,119.3,287.9,119.7z"/>
				<path class="st4" d="M287.9,119.7c-0.1-0.3-0.1-0.7-0.2-1.1C287.8,119,287.9,119.3,287.9,119.7z"/>
				<path class="st16" d="M287.4,117.6c0.1,0.2,0.1,0.4,0.2,0.6c0,0.2,0.1,0.3,0.1,0.5c0.1,0.4,0.2,0.7,0.2,1.1c0,0,0,0,0,0.1
					c1.3-0.3,2.9-1.6,3.8-3C290.3,117.4,288.8,117.6,287.4,117.6z"/>
				<path class="st4" d="M287.4,117.6c0.1,0.2,0.1,0.4,0.2,0.6c0,0.2,0.1,0.3,0.1,0.5c0.1,0.4,0.2,0.7,0.2,1.1c0,0,0,0,0,0.1
					c1.3-0.3,2.9-1.6,3.8-3C290.3,117.4,288.8,117.6,287.4,117.6z"/>
				<path class="st16" d="M287.4,117.6c1.4,0,2.9-0.2,4.4-0.8c0,0,0.1,0,0.1,0c-2.1-1.8-3.3-3.9-3.3-3.9s3.1,1.6,5.2-2.2
					c-1.4-2.9,0.8-6.9,3-7.9c-0.5-1.2-0.5-5,1.4-7.4c-4.7-0.5-8.6-4.5-11.6-4.5c-0.9,0.7-1.7,1.6-2.5,2.5c0.5,0,0.8,0.1,0.8,0.1
					c0.2,0.1,0.3,0.3,0.2,0.5c-0.1,0.2-0.3,0.3-0.5,0.2c0,0-0.5-0.2-1.1-0.1c-0.7,1-1.4,2.1-2,3.3l0.8,0.5c0,0,0,0,0,0
					c0.3,0.2,0.4,0.7,0.2,1.2c-0.2,0.6-0.7,1-1.1,0.9c-0.4-0.1-0.6-0.7-0.4-1.3c0.1-0.4,0.3-0.6,0.6-0.8c-0.1-0.1-0.2-0.1-0.3-0.2
					c-1.6,3.3-2.6,6.9-2.8,9.9c-0.2,2.3,0.4,4.4,1.4,6c0.3,0.5,0.7,1,1.1,1.4C282.8,116.6,285,117.5,287.4,117.6
					C287.4,117.6,287.4,117.6,287.4,117.6z M291.2,96.2c0.1,0,1.8,0.3,2.5,2.2c0.1,0.2,0,0.4-0.2,0.5c-0.1,0-0.2,0-0.3,0
					c-0.1,0-0.2-0.1-0.2-0.2c-0.6-1.5-2-1.7-2-1.7c-0.2,0-0.3-0.2-0.3-0.4C290.8,96.3,291,96.2,291.2,96.2z M288.6,99l1.3,0.8
					c0,0,0,0,0,0c0.3,0.2,0.4,0.7,0.2,1.2c-0.2,0.6-0.7,1-1.1,0.9c-0.4-0.1-0.6-0.7-0.4-1.3c0.1-0.4,0.3-0.6,0.6-0.8
					C288.8,99.7,288.6,99,288.6,99z M281.4,104.1c1.5-1,3.4-3.3,3.4-3.3l-1.4,4.3C283.4,105.1,281.9,105,281.4,104.1z M284.3,108.5
					c-0.1,0-0.2-0.1-0.1-0.3c0-0.1,0.1-0.2,0.3-0.2c3,0.7,5.1-1.1,5.1-1.1c0.1-0.1,0.2-0.1,0.3,0c0.1,0.1,0.1,0.2,0,0.3
					c-0.1,0.1-1.7,1.5-4.3,1.4C285.1,108.6,284.7,108.6,284.3,108.5z"/>
				<path class="st3" d="M289.8,107c-0.1-0.1-0.2-0.1-0.3,0c0,0-2.1,1.8-5.1,1.1c-0.1,0-0.2,0-0.3,0.2c0,0.1,0,0.2,0.1,0.3
					c0.4,0.1,0.8,0.2,1.2,0.2c2.6,0.1,4.2-1.3,4.3-1.4C289.9,107.2,289.9,107.1,289.8,107z"/>
				<path class="st3" d="M288.7,100.7c-0.2,0.6,0,1.2,0.4,1.3c0.4,0.1,0.9-0.3,1.1-0.9c0.2-0.5,0.1-1-0.2-1.2
					c-0.3,0.1-0.5,0.1-0.7,0C289,100.1,288.8,100.3,288.7,100.7z"/>
				<path class="st3" d="M281.8,98c-0.2,0.2-0.4,0.4-0.6,0.8c-0.2,0.6,0,1.2,0.4,1.3c0.4,0.1,0.9-0.3,1.1-0.9c0.2-0.5,0.1-1-0.2-1.2
					C282.2,98.1,282,98.1,281.8,98z"/>
				<path class="st3" d="M281.5,97.7c0.1,0.1,0.2,0.2,0.3,0.2c0.2,0.1,0.4,0.1,0.7,0c0,0,0,0,0,0l-0.8-0.5l-0.5-0.3
					C281.2,97.1,281.3,97.5,281.5,97.7z"/>
				<path class="st17" d="M281.4,104.1c0.6,1,2,1,2,1l1.4-4.3C284.8,100.7,282.9,103.1,281.4,104.1z"/>
				<path class="st3" d="M298.8,119.1c6-0.9,9.8-23.4,6.1-25.6c-2.4,1.7-4.6,2.2-6.6,1.9c-1.9,2.4-1.9,6.2-1.4,7.4
					c-2.2,0.9-4.4,5-3,7.9c-2.1,3.7-5.2,2.2-5.2,2.2s1.2,2.1,3.3,3.9c1,0.9,2.3,1.7,3.7,2.1C296.6,119.1,297.6,119.2,298.8,119.1z"
					/>
				<path class="st3" d="M304.9,93.5c0.1-0.1,0.3-0.2,0.4-0.3c-5.8-6.5-14-7.4-19.9-2c0.4-0.2,0.8-0.3,1.3-0.3
					c2.9,0.1,6.8,4,11.6,4.5C300.3,95.6,302.5,95.2,304.9,93.5z"/>
				<path class="st3" d="M291.1,96.9c0,0,1.4,0.2,2,1.7c0,0.1,0.1,0.2,0.2,0.2c0.1,0,0.2,0,0.3,0c0.2-0.1,0.3-0.3,0.2-0.5
					c-0.8-1.9-2.4-2.2-2.5-2.2c-0.2,0-0.4,0.1-0.4,0.3C290.8,96.7,290.9,96.9,291.1,96.9z"/>
				<path class="st3" d="M281.7,94.1c-0.2,0.1-0.2,0.4-0.1,0.5c0.1,0.1,0.1,0.1,0.2,0.1c0.1,0,0.2,0,0.3-0.1
					c0.6-0.4,1.1-0.6,1.6-0.6c0.6-0.1,1.1,0.1,1.1,0.1c0.2,0.1,0.4,0,0.5-0.2c0.1-0.2,0-0.4-0.2-0.5c0,0-0.3-0.1-0.8-0.1
					C283.6,93.3,282.6,93.4,281.7,94.1z"/>
				<path class="st3" d="M289.9,99.9C289.9,99.9,289.9,99.9,289.9,99.9l-1.3-0.8c0,0,0.2,0.7,0.6,0.9
					C289.4,100,289.6,100,289.9,99.9z"/>
			</g>
			<g>
				<path class="st3" d="M334.7,105c-0.1,0-0.1-0.1-0.2-0.1c-0.1-0.1-0.1-0.3,0.1-0.5c0.1-0.1,0.3-0.2,0.4-0.3
					c0.4-1.1,0.9-2.2,1.5-3.2c-0.7-0.4-1.2-0.9-1.7-1.6c-0.9,1-1.1,2.5-0.8,4.2c0.2,1.2,0.1,2.7,0.1,4.1
					C334.3,106.8,334.5,105.9,334.7,105C334.7,105,334.7,105.1,334.7,105z"/>
				<path class="st2" d="M359.2,129.2c-1.6,0-3.3,0-5,0c0,1.5-0.6,3-1.6,4.5h12.5C363.9,131.2,361.8,129.3,359.2,129.2z"/>
				<path class="st2" d="M336.8,131c-2.6,0.5-4.8,1.4-6.8,2.7h4.9C335.4,132.5,336.1,131.5,336.8,131z"/>
				<path class="st8" d="M354.2,129.2c-1.4-0.9-2.1-0.5-2.1-0.5s0,0,0,0c0.4,0.9,0.3,2.1-0.5,2.9c-0.7,0.7-1.5,1.4-2.4,2.1h3.5
					C353.6,132.3,354.2,130.7,354.2,129.2C354.2,129.2,354.2,129.2,354.2,129.2z"/>
				<path class="st8" d="M338.5,130.8c0.4-0.2,0.7-0.4,1.1-0.6c-0.1,0-1.5,0.1-2.8,0.8c0,0,0,0,0,0c-0.7,0.5-1.4,1.5-1.9,2.7h1.5
					c0-0.1,0.1-0.3,0.1-0.4C336.7,132.2,337.5,131.3,338.5,130.8z"/>
				<path class="st18" d="M341.8,122.9c0,0,0,0.1,0,0.1C341.8,122.9,341.8,122.9,341.8,122.9C341.8,122.9,341.8,122.9,341.8,122.9z"
					/>
				<path class="st18" d="M352.1,128.7c0-0.1-0.1-0.1-0.1-0.2c-1.4-2.2-1.8-5.7-1.7-9.2c-0.4,0.4-1,0.8-1.6,1.2
					c-1.1,0.6-2.2,1.1-3.2,1.5c-1,1-2.3,1.9-3.4,2.1c0,0,0,0,0,0c0.3,2.3-0.2,4.5-2.4,6c-0.3,0.2-0.7,0.4-1.1,0.6
					c-1,0.5-1.9,1.4-2.2,2.5c0,0.1-0.1,0.3-0.1,0.4h12.9c0.9-0.7,1.7-1.4,2.4-2.1C352.3,130.8,352.5,129.6,352.1,128.7z"/>
				<path class="st4" d="M342,124.1c0-0.4-0.1-0.8-0.2-1.2C341.9,123.4,342,123.7,342,124.1z"/>
				<path class="st18" d="M345.5,122c-1.3,0.5-2.5,0.8-3.7,0.8c0,0,0,0.1,0,0.1c0.1,0.4,0.2,0.8,0.2,1.2c0,0,0,0,0,0
					C343.1,123.9,344.4,123.1,345.5,122z"/>
				<path class="st4" d="M345.5,122c-1.3,0.5-2.5,0.8-3.7,0.8c0,0,0,0.1,0,0.1c0.1,0.4,0.2,0.8,0.2,1.2c0,0,0,0,0,0
					C343.1,123.9,344.4,123.1,345.5,122z"/>
				<path class="st18" d="M345.5,122c1-0.4,2.1-0.9,3.2-1.5c0.6-0.3,1.1-0.7,1.6-1.2c1-1,1.7-2.3,2.1-3.7c-0.2,0.1-0.5,0.2-0.7,0.2
					c-0.3,0.1-0.6,0.1-0.9,0c-2.5,1.4-6,2.3-8.8,2.4c-0.2,0.5-0.9,0.8-1.6,0.7c-0.8-0.1-1.3-0.7-1.1-1.3c0.1-0.6,0.9-1,1.6-0.8
					c0.6,0.1,1,0.5,1.1,1c2.5-0.1,5.7-0.9,8.1-2.1c-0.7-0.6-0.8-1.9-0.2-3.3c0,0,0-0.1,0-0.1c-2.4-1.9-0.4-4.8,0.9-6
					c1.6-1.4-1.3-2.1,0.5-5.2c-6.4,2.5-6.1-0.2-12.2,0.6c-1,0.1-2-0.1-2.8-0.5c-0.6,1-1.1,2-1.5,3.2c1.3-0.8,2.5-0.5,2.5-0.5
					c0.2,0.1,0.3,0.2,0.2,0.4c-0.1,0.2-0.3,0.3-0.4,0.2c0,0-1.2-0.3-2.3,0.6c-0.1,0.1-0.2,0.1-0.2,0.1c-0.3,0.9-0.5,1.8-0.7,2.6
					c-0.5,2.7-0.6,5.4-0.3,7.6c0.6,4.9,3.4,7.9,8,7.6c0,0,0,0,0,0C342.9,122.8,344.1,122.5,345.5,122z M344.1,104.9
					c0.1,0,1.6,0.1,2.4,1.6c0.1,0.2,0,0.4-0.1,0.5c-0.1,0-0.1,0-0.2,0c-0.1,0-0.2-0.1-0.3-0.2c-0.7-1.2-1.8-1.3-1.9-1.3
					c-0.2,0-0.3-0.2-0.3-0.3C343.8,105,344,104.8,344.1,104.9z M341.9,108.4c0.1-0.6,0.5-1,0.8-0.9c0.4,0,0.6,0.5,0.5,1.1
					c-0.1,0.6-0.5,1-0.8,0.9C342,109.5,341.8,109,341.9,108.4z M335.1,107.5c0.1-0.6,0.5-1,0.8-0.9c0.4,0,0.6,0.5,0.5,1.1
					c-0.1,0.6-0.5,1-0.8,0.9C335.2,108.6,335,108.1,335.1,107.5z M334.5,111.7c1.6-1.6,4.3-3.8,4.3-3.8l-1.7,5
					C337.1,112.9,335.1,112.8,334.5,111.7z M338,115.2c-0.1,0-0.1-0.1-0.1-0.2c0-0.1,0.1-0.1,0.2-0.1c2.3,0.6,4-0.9,4-0.9
					c0.1-0.1,0.2-0.1,0.2,0c0.1,0.1,0,0.2,0,0.2c-0.1,0.1-1.5,1.3-3.6,1.1C338.5,115.3,338.3,115.2,338,115.2z"/>
				<path class="st3" d="M336.5,101c0.8,0.4,1.7,0.6,2.8,0.5c6.1-0.7,5.8,1.9,12.2-0.6c-1.7,3.1,1.1,3.8-0.5,5.2
					c-1.4,1.2-3.3,4.2-0.9,6c0.9-1.8,2.9-4.2,4.8-3.8c0.8,0.2,1.3,0.8,1.5,1.5c0.5-0.3,1.1-0.6,1.6-1c3.4-2.4,5.6-9.1,0.7-10.1
					c-0.9,0.6-2.2,0.9-3.8,0.9c1.1-0.2,2-0.8,2.6-1.5c-0.6-5.1-3.9-2.2-7.4-4.3c-2.5-1.5-2-3.7-6.2-3.2c-1.6,0.2-2.7-1.8,0.8-3.2
					c-1.9-2.2-10.6,1.3-10.8,8.1c-0.1,1.5,0.3,2.8,1,3.9C335.3,100.1,335.8,100.7,336.5,101z"/>
				<path class="st3" d="M354.9,99.7c1.6,0,2.9-0.3,3.8-0.9c1.4-0.9,1.6-2.5-0.2-4.8c0.4,1.5,0,3-1,4.1
					C356.8,98.9,355.9,99.5,354.9,99.7z"/>
				<path class="st18" d="M352.9,114.3c-0.6,0.6-1.3,1.1-2.1,1.5c0.3,0,0.5,0,0.9,0c0.2-0.1,0.4-0.2,0.7-0.2
					c0.9-0.3,1.8-0.9,2.6-1.7C354.3,114.4,353.5,114.6,352.9,114.3z"/>
				<path class="st18" d="M354.8,108.4c-1.8-0.4-3.9,2-4.8,3.8c0,0,0,0.1,0,0.1c-0.6,1.4-0.6,2.7,0.2,3.3c1-0.5,1.8-1.1,2.4-1.7
					c-0.3-0.5-0.2-1.4,0.3-2.1c0.6-0.9,1.7-1.2,2.3-0.8c0.7,0.4,0.7,1.5,0.1,2.4c0.1-0.2,0.3-0.3,0.4-0.5c0.7-1,0.9-2.1,0.7-3
					C356.2,109.2,355.7,108.6,354.8,108.4z"/>
				<path class="st3" d="M355.2,111.1c-0.7-0.5-1.7-0.1-2.3,0.8c-0.5,0.7-0.6,1.5-0.3,2.1c0.2-0.2,0.3-0.3,0.4-0.5
					c0.1-0.1,0.3-0.1,0.4-0.1c0.1,0.1,0.1,0.3,0.1,0.4c-0.1,0.2-0.3,0.4-0.5,0.6c0.6,0.4,1.4,0.2,2-0.4c0.1-0.1,0.2-0.2,0.3-0.4
					c0,0,0,0,0,0C355.9,112.6,355.8,111.5,355.2,111.1z"/>
				<path class="st3" d="M341.3,118.2c-0.1,0-0.3-0.1-0.3-0.3c0-0.1,0.1-0.2,0.3-0.3c0.3,0,0.5,0,0.8,0c-0.1-0.5-0.5-0.9-1.1-1
					c-0.8-0.1-1.5,0.2-1.6,0.8c-0.1,0.6,0.4,1.2,1.1,1.3c0.7,0.1,1.3-0.2,1.6-0.7c-0.1,0-0.3,0-0.4,0
					C341.5,118.2,341.4,118.2,341.3,118.2z"/>
				<path class="st3" d="M352.9,114.3c0.2-0.2,0.4-0.4,0.5-0.6c0.1-0.1,0.1-0.3-0.1-0.4c-0.1-0.1-0.3-0.1-0.4,0.1
					c-0.1,0.2-0.3,0.3-0.4,0.5c-0.6,0.6-1.4,1.2-2.4,1.7c-2.4,1.2-5.5,2-8.1,2.1c-0.3,0-0.5,0-0.8,0c-0.2,0-0.3,0.1-0.3,0.3
					c0,0.1,0.1,0.3,0.3,0.3c0.1,0,0.2,0,0.3,0c0.1,0,0.3,0,0.4,0c2.8-0.1,6.2-1,8.8-2.4C351.6,115.4,352.4,114.8,352.9,114.3z"/>
				<path class="st3" d="M342.4,109.5c0.4,0,0.7-0.4,0.8-0.9c0.1-0.6-0.1-1-0.5-1.1c-0.4,0-0.7,0.4-0.8,0.9
					C341.8,109,342,109.5,342.4,109.5z"/>
				<path class="st3" d="M335.6,108.6c0.4,0,0.7-0.4,0.8-0.9c0.1-0.6-0.1-1-0.5-1.1c-0.4,0-0.7,0.4-0.8,0.9
					C335,108.1,335.2,108.6,335.6,108.6z"/>
				<path class="st19" d="M338.8,107.9c0,0-2.7,2.1-4.3,3.8c0.6,1.2,2.6,1.2,2.6,1.2L338.8,107.9z"/>
				<path class="st3" d="M342.3,114.2c0.1-0.1,0.1-0.2,0-0.2c-0.1-0.1-0.2-0.1-0.2,0c0,0-1.6,1.4-4,0.9c-0.1,0-0.2,0-0.2,0.1
					c0,0.1,0,0.2,0.1,0.2c0.2,0.1,0.5,0.1,0.7,0.1C340.9,115.5,342.3,114.3,342.3,114.2z"/>
				<path class="st3" d="M344.1,105.5c0,0,1.2,0.1,1.9,1.3c0.1,0.1,0.2,0.2,0.3,0.2c0.1,0,0.1,0,0.2,0c0.2-0.1,0.2-0.3,0.1-0.5
					c-0.8-1.6-2.3-1.6-2.4-1.6c-0.2,0-0.3,0.1-0.4,0.3C343.8,105.4,343.9,105.5,344.1,105.5z"/>
				<path class="st3" d="M334.6,104.9c0,0.1,0.1,0.1,0.2,0.1c0,0,0,0,0.1,0c0.1,0,0.2,0,0.2-0.1c1.2-0.9,2.3-0.6,2.3-0.6
					c0.2,0.1,0.4,0,0.4-0.2c0.1-0.2,0-0.4-0.2-0.4c-0.1,0-1.2-0.4-2.5,0.5c-0.1,0.1-0.3,0.2-0.4,0.3
					C334.5,104.6,334.4,104.8,334.6,104.9z"/>
			</g>
			<g>
				<path class="st3" d="M227.7,175.7c0-0.4-0.1-0.7-0.1-1.1c0,0,0,0,0-0.1c-5.5,0.6-10.4-3.1-10.4-9.1c0-2.7,0.5-6,1.6-9.1
					c0,0,0-0.1,0-0.1l0,0c0.6-1.7,1.4-3.4,2.4-4.9c-0.9-1.4-0.4-3.3,2.1-5.9c0.1-1.3,0.5-2.4,1.1-3.2c-0.9,0.1-1.8,0.3-2.6,0.6
					c-7.4,2.7-3.5,13.5-9,18.1c-5.4,4.6-7.6,11.3-5.5,16.6c1.3,1.1,3.3,1.9,5.7,2.4c-0.3-2.8,0.4-6.6,0.4-6.6s0.4,4.7,2,7
					c1.8,0.3,3.8,0.4,5.9,0.5c0.1-1,0.3-1.8,0.3-1.8s0.2,0.8,0.6,1.8c1,0,2.2,0,3.3,0.1C227.3,179.6,227.8,177.7,227.7,175.7z"/>
				<path class="st3" d="M241,161.5c1.3,0.7,1.5,2.4,0.6,3.8c-0.9,1.4-2.4,2.2-3.7,2.4c-0.2,0-0.3,0-0.5,0c-0.5,0.9-1.1,1.8-1.9,2.6
					c-0.4,3.7-0.4,7.9,1.1,10.3c3.1-0.3,6.3-0.9,9.2-1.9c4.2-7.1-1.5-10.9-2.4-14.6c-1.2-4.8,1.6-6.5,2.3-10.5
					c0.4-2.7-1.4-5.5-5.2-5.3c0.3,0.9,0.4,1.9,0.5,2.9C243.5,151.7,243.3,156.8,241,161.5z"/>
				<path class="st2" d="M208.7,187.1h0.6c0.4-0.8,1-1.6,1.6-2.2C210.1,185.7,209.3,186.4,208.7,187.1z"/>
				<path class="st2" d="M211.3,184.6c-0.1,0.1-0.2,0.1-0.3,0.2c0.2-0.1,0.4-0.3,0.6-0.4C211.5,184.5,211.5,184.5,211.3,184.6z"/>
				<path class="st2" d="M222.9,182c-3.1,0.4-6.5,1-9,1.5c-0.8,0.2-1.6,0.5-2.2,0.9c-0.2,0.1-0.4,0.3-0.6,0.4
					c-0.1,0-0.1,0.1-0.2,0.1c-0.7,0.6-1.2,1.4-1.6,2.2h7.4C217.9,183.3,222.9,182,222.9,182z"/>
				<path class="st2" d="M244.8,182.1c-2.1-0.2-4.7-0.5-7.4-0.5c0,0,1.2,1.7-0.4,5.6h3.1C240.2,184.1,241.3,181.9,244.8,182.1z"/>
				<path class="st8" d="M222.9,182c0,0-5,1.3-6.2,5.2h6.1C221.9,184.5,222.9,182,222.9,182z"/>
				<path class="st8" d="M237.4,181.6c0,0-3,3.1-7.2,5.6h6.8C238.6,183.3,237.4,181.6,237.4,181.6z"/>
				<path class="st20" d="M227.5,174.5C227.5,174.5,227.5,174.6,227.5,174.5C227.5,174.6,227.5,174.5,227.5,174.5
					C227.5,174.5,227.5,174.5,227.5,174.5z"/>
				<path class="st18" d="M237.4,181.6c-0.3-0.3-0.5-0.6-0.8-1c-1.5-2.4-1.5-6.5-1.1-10.3c-0.7,0.8-1.6,1.5-2.6,2.2
					c-0.5,0.3-0.9,0.6-1.4,0.8c-1.1,1.2-2.6,2.2-3.9,2.4c0,0,0,0,0-0.1c0.1,2-0.3,4-2.2,5.2c-0.7,0.4-1.5,0.8-2.5,1.1
					c0,0-1,2.5-0.1,5.2h7.4C234.3,184.7,237.4,181.6,237.4,181.6z"/>
				<path class="st3" d="M227.7,175.7c0-0.4-0.1-0.7-0.1-1.1C227.6,174.9,227.6,175.3,227.7,175.7z"/>
				<path class="st4" d="M227.7,175.7c0-0.4-0.1-0.7-0.1-1.1C227.6,174.9,227.6,175.3,227.7,175.7z"/>
				<path class="st4" d="M227.5,174.6c0.1,0.4,0.1,0.7,0.1,1.1c0,0,0,0,0,0.1c1.3-0.2,2.8-1.2,3.9-2.4
					C230.2,174,228.9,174.4,227.5,174.6C227.5,174.5,227.5,174.6,227.5,174.6z"/>
				<path class="st13" d="M227.5,174.6c0.1,0.4,0.1,0.7,0.1,1.1c0,0,0,0,0,0.1c1.3-0.2,2.8-1.2,3.9-2.4
					C230.2,174,228.9,174.4,227.5,174.6C227.5,174.5,227.5,174.6,227.5,174.6z"/>
				<path class="st18" d="M235.9,164.5c0.3-0.8,1-1.7,1.7-2.4c-2.1-1.8-2.9-5.5-0.5-8.7c-6.8,1.1-14.3,0.8-16.1-2.1
					c-1,1.5-1.8,3.2-2.4,4.9l1.3,0.7c0,0,0,0,0,0c0.3,0.2,0.4,0.6,0.3,1.2c-0.1,0.6-0.6,1.1-1,1c-0.4-0.1-0.6-0.6-0.5-1.3
					c0.1-0.4,0.3-0.6,0.5-0.8c-0.4-0.1-0.6-0.6-0.7-0.8c-1.1,3.1-1.6,6.4-1.6,9.1c0,6,5,9.7,10.4,9.1c0,0,0,0,0,0
					c1.3-0.1,2.7-0.5,4-1.2c0.5-0.2,0.9-0.5,1.4-0.8c1-0.7,1.9-1.4,2.6-2.2c0.7-0.8,1.4-1.6,1.9-2.6
					C235.8,167.8,235.2,166.1,235.9,164.5z M229,155.9c0.1,0,1.8-0.1,3,1.5c0.1,0.2,0.1,0.4-0.1,0.5c-0.1,0.1-0.2,0.1-0.3,0.1
					c-0.1,0-0.2-0.1-0.3-0.1c-1-1.3-2.3-1.2-2.3-1.2c-0.2,0-0.4-0.1-0.4-0.3C228.7,156.1,228.8,155.9,229,155.9z M228,158.4
					C227.9,158.4,227.9,158.4,228,158.4c0.3,0.2,0.4,0.7,0.3,1.2c-0.1,0.6-0.6,1.1-1,1c-0.4-0.1-0.6-0.6-0.5-1.3
					c0.1-0.4,0.3-0.6,0.5-0.8c-0.5-0.2-0.7-0.8-0.7-0.8L228,158.4z M219.7,155.5c-0.1,0-0.2,0-0.3,0c-0.1,0-0.2-0.1-0.2-0.2
					c-0.1-0.2,0-0.4,0.2-0.5c1.9-0.9,3.3,0,3.4,0c0.2,0.1,0.2,0.3,0.1,0.5c-0.1,0.2-0.3,0.2-0.5,0.1
					C222.3,155.4,221.2,154.8,219.7,155.5z M219.6,162.8c1.5-1.1,3.1-3.6,3.1-3.6l-1,4.4C221.7,163.7,220.2,163.8,219.6,162.8z
					 M220.8,165.8c6.6-1.5,9-1.6,9-1.6s0.4,2.1-3,2.9C223.4,167.9,221.8,167.1,220.8,165.8z"/>
				<path class="st3" d="M221.1,151.4c1.8,2.8,9.3,3.1,16.1,2.1c0.5-0.8,1.2-1.5,2.1-2.2c0.7-0.2,1.2-0.3,1.7-0.2c0-1-0.2-2-0.5-2.9
					c-2.4-7.7-12.7-10.8-16.2-6c-0.6,0.8-1,1.9-1.1,3.2C220.7,148.1,220.2,150,221.1,151.4z"/>
				<path class="st3" d="M237.7,162.2c0.8-0.7,1.7-1.1,2.7-0.9c0.2,0.1,0.5,0.1,0.7,0.2c2.3-4.7,2.5-9.8,0-10.4
					c-0.5-0.1-1-0.1-1.7,0.2c-0.9,0.7-1.6,1.4-2.1,2.2C234.8,156.7,235.6,160.3,237.7,162.2z"/>
				<path class="st8" d="M229.8,164.2c0,0-2.4,0.1-9,1.6c1,1.3,2.7,2.1,6,1.3C230.2,166.4,229.8,164.2,229.8,164.2z"/>
				<path class="st3" d="M227.3,158.5c-0.2,0.2-0.4,0.5-0.5,0.8c-0.1,0.6,0.1,1.2,0.5,1.3c0.4,0.1,0.8-0.4,1-1c0.1-0.5,0-1-0.3-1.2
					C227.7,158.6,227.5,158.6,227.3,158.5z"/>
				<path class="st3" d="M219.4,157.1c-0.2,0.2-0.4,0.5-0.5,0.8c-0.1,0.6,0.1,1.2,0.5,1.3c0.4,0.1,0.8-0.4,1-1c0.1-0.5,0-1-0.3-1.2
					C219.8,157.1,219.6,157.2,219.4,157.1z"/>
				<path class="st3" d="M219.4,157.1c0.2,0.1,0.4,0.1,0.7-0.1c0,0,0,0,0,0l-1.3-0.7l0,0c0,0,0,0,0,0.1
					C218.8,156.5,219,156.9,219.4,157.1z"/>
				<path class="st19" d="M221.7,163.7l1-4.4c0,0-1.7,2.5-3.1,3.6C220.2,163.8,221.7,163.7,221.7,163.7z"/>
				<path class="st18" d="M237.7,162.2c-0.8,0.7-1.4,1.6-1.7,2.4c-0.7,1.6-0.1,3.2,1.5,3.2c0.2,0,0.3,0,0.5,0
					c1.3-0.3,2.8-1.1,3.7-2.4c0.9-1.3,0.7-3.1-0.6-3.8c-0.2-0.1-0.4-0.2-0.7-0.2C239.4,161,238.5,161.5,237.7,162.2z"/>
				<path class="st3" d="M229,156.6c0,0,1.4-0.1,2.3,1.2c0.1,0.1,0.2,0.1,0.3,0.1c0.1,0,0.2,0,0.3-0.1c0.2-0.1,0.2-0.4,0.1-0.5
					c-1.2-1.6-2.9-1.5-3-1.5c-0.2,0-0.4,0.2-0.4,0.4C228.7,156.5,228.8,156.6,229,156.6z"/>
				<path class="st3" d="M222.4,155.4c0.2,0.1,0.4,0,0.5-0.1c0.1-0.2,0.1-0.4-0.1-0.5c-0.1,0-1.5-0.9-3.4,0
					c-0.2,0.1-0.3,0.3-0.2,0.5c0,0.1,0.1,0.2,0.2,0.2c0.1,0,0.2,0,0.3,0C221.2,154.8,222.3,155.4,222.4,155.4z"/>
				<path class="st3" d="M227.3,158.5c0.2,0.1,0.4,0.1,0.7-0.1c0,0,0,0,0,0l-1.4-0.7C226.6,157.7,226.8,158.3,227.3,158.5z"/>
				<path class="st2" d="M244.8,182.1C244.8,182.1,244.8,182.1,244.8,182.1c-3.5-0.2-4.6,2-4.7,5.1h12.7
					C251.4,184.5,249.4,182.4,244.8,182.1z"/>
			</g>
			<g>
				<path class="st3" d="M275.2,180.6c-2.4,0.6-4.7,1.4-6.9,2.4c-2.1,1-3.9,2.4-5.4,4.2h10.3C269.8,185,273.5,181.8,275.2,180.6z"/>
				<path class="st3" d="M301.6,181.5c-1.5-0.6-3.2-1-5-1.4c-0.1,0.7-0.7,4.7-5.5,7h17.6C307.3,184.8,305,182.8,301.6,181.5z"/>
				<path class="st13" d="M281.6,182.7C281.6,182.7,281.7,182.7,281.6,182.7c4.5-0.7,10.9-4.5,10.9-4.5c0,0,0,0,0,0
					c-0.3-2.8-0.5-6.8-0.3-10.6c-0.8,1.2-1.8,2.2-3.1,3.1c-0.8,0.5-1.6,0.9-2.4,1.2c-1.3,1.2-3.3,2.1-4.8,2c0,0,0,0,0-0.1
					c0.2,1.8-0.1,3.5-1.5,4.8c0,0,0,0,0,0C280.5,178.7,277.4,182.1,281.6,182.7z"/>
				<path class="st21" d="M281.7,172.8c0-0.2-0.1-0.4-0.1-0.5C281.7,172.5,281.7,172.7,281.7,172.8z"/>
				<path class="st4" d="M281.9,174c0-0.4-0.1-0.7-0.2-1.1C281.8,173.2,281.9,173.6,281.9,174z"/>
				<path class="st4" d="M281.6,172.2C281.6,172.2,281.6,172.3,281.6,172.2C281.6,172.3,281.6,172.3,281.6,172.2
					C281.6,172.2,281.6,172.2,281.6,172.2z"/>
				<path class="st13" d="M286.7,172c-1.7,0.6-3.5,0.6-5.1,0.2c0,0,0,0.1,0,0.1c0,0.2,0.1,0.4,0.1,0.5c0.1,0.4,0.2,0.7,0.2,1.1
					c0,0,0,0,0,0.1C283.5,174.1,285.4,173.3,286.7,172z"/>
				<path class="st4" d="M286.7,172c-1.7,0.6-3.5,0.6-5.1,0.2c0,0,0,0.1,0,0.1c0,0.2,0.1,0.4,0.1,0.5c0.1,0.4,0.2,0.7,0.2,1.1
					c0,0,0,0,0,0.1C283.5,174.1,285.4,173.3,286.7,172z"/>
				<path class="st3" d="M280.6,147.7C280.6,147.7,280.6,147.7,280.6,147.7c-0.7,0.2-1.4-0.1-1.9-0.8c-0.8,1.2-1.5,2.7-1.7,4.3
					c0.4-0.2,0.9-0.4,1.2-0.4C278.9,149.6,279.7,148.6,280.6,147.7z"/>
				<path class="st3" d="M276.9,152c0,0.4,0,0.8,0,1.1c0.2-0.5,0.5-1.1,0.8-1.6C277.5,151.7,277.2,151.8,276.9,152z"/>
				<path class="st13" d="M286.7,172c0.8-0.3,1.6-0.7,2.4-1.2c1.3-0.9,2.3-1.9,3.1-3.1c0.4-0.6,0.8-1.3,1.1-2
					c-2,0.2-2.7-1.7-1.8-3.5c0.3-0.5,0.7-1.2,1.2-1.7c-1.3-2.2-0.6-8.4-0.9-10.9c-4-2.1-8-2.7-11.2-1.9c-0.9,0.9-1.7,1.9-2.4,3.1
					c0.3,0,0.5,0,0.5,0c0.2,0,0.3,0.2,0.3,0.4c0,0.2-0.2,0.3-0.4,0.3c0,0-0.4,0-0.9,0.2c-0.3,0.5-0.5,1-0.8,1.6
					c-1.5,3.3-2.1,7.1-2.1,10.1c0,4.4,3,7.9,6.8,8.9c0,0,0,0,0,0C283.2,172.7,285,172.6,286.7,172z M286.6,151.9
					c0.1,0,1.5,0.5,2,2.3c0,0.2-0.1,0.4-0.2,0.4c-0.1,0-0.1,0-0.2,0c-0.1,0-0.2-0.1-0.2-0.2c-0.4-1.4-1.5-1.8-1.5-1.8
					c-0.2-0.1-0.3-0.2-0.2-0.4C286.2,151.9,286.4,151.8,286.6,151.9z M283.7,155.7c0.1-0.6,0.5-1,0.9-0.9c0.4,0.1,0.6,0.6,0.4,1.1
					c-0.1,0.6-0.5,1-0.9,0.9C283.8,156.8,283.6,156.2,283.7,155.7z M277,154.9c0.1-0.6,0.5-1,0.9-0.9c0.4,0.1,0.6,0.6,0.4,1.1
					c-0.1,0.6-0.5,1-0.9,0.9C277,156,276.8,155.5,277,154.9z M277.3,159.9c1.8-1.3,3.8-4.3,3.8-4.3l-1.2,5.3
					C279.9,160.9,278.1,161,277.3,159.9z M280.7,162.6c0-0.1,0.2-0.1,0.2-0.1c0,0,2.1,0.8,4.5-0.7c0.1-0.1,0.2,0,0.3,0
					c0.1,0.1,0,0.2-0.1,0.3c-0.3,0.2-0.6,0.3-0.8,0.5c-2.1,1-3.9,0.3-4,0.3C280.7,162.8,280.7,162.7,280.7,162.6z"/>
				<path class="st3" d="M280.6,147.7C280.6,147.7,280.6,147.7,280.6,147.7c3.1-0.8,7.2-0.2,11.2,1.9c3.9-1.3,6.5-1.3,8.3-0.4
					c2.9-3.4-3.6-7.5-9.8-7.9c2-1.2,1.5-5.4-5.6-3.6c-7.1,1.8-7.6,7.2-6,9.3C279.2,147.6,279.9,147.9,280.6,147.7z"/>
				<path class="st3" d="M291.8,149.6c0.3,2.5-0.4,8.6,0.9,10.9c1-1.1,2.4-2,3.7-1.6c0.7,0.2,1.2,0.6,1.5,1.2c1.2-1.3,2-3.1,1.9-4.5
					c1.2,0.3,3.9-2.3,2.1-4.7c-0.5-0.7-1.2-1.3-2-1.7C298.2,148.3,295.6,148.3,291.8,149.6z"/>
				<path class="st3" d="M284.8,162.6c0.3-0.1,0.5-0.3,0.8-0.5c0.1-0.1,0.1-0.2,0.1-0.3c-0.1-0.1-0.2-0.1-0.3,0
					c-2.3,1.6-4.4,0.7-4.5,0.7c-0.1,0-0.2,0-0.2,0.1c0,0.1,0,0.2,0.1,0.2C280.9,162.9,282.6,163.6,284.8,162.6z"/>
				<path class="st13" d="M296.4,158.8c-1.3-0.4-2.7,0.5-3.7,1.6c-0.5,0.5-0.9,1.1-1.2,1.7c-0.9,1.8-0.2,3.7,1.8,3.5
					c0.1,0,0.1,0,0.2,0c1.4-0.2,3-1,4.1-2.4c0.8-1,0.9-2.3,0.4-3.3C297.7,159.5,297.2,159,296.4,158.8z"/>
				<path class="st3" d="M284.1,156.8c0.4,0.1,0.8-0.3,0.9-0.9c0.1-0.6-0.1-1.1-0.4-1.1c-0.4-0.1-0.8,0.3-0.9,0.9
					S283.8,156.8,284.1,156.8z"/>
				<path class="st3" d="M278.3,155.2c0.1-0.6-0.1-1.1-0.4-1.1c-0.4-0.1-0.8,0.3-0.9,0.9c-0.1,0.6,0.1,1.1,0.4,1.1
					C277.8,156.1,278.2,155.7,278.3,155.2z"/>
				<path class="st14" d="M277.3,159.9c0.8,1.1,2.6,1,2.6,1l1.2-5.3C281.1,155.6,279.1,158.6,277.3,159.9z"/>
				<path class="st3" d="M286.3,152.5c0,0,1.2,0.4,1.5,1.8c0,0.1,0.1,0.2,0.2,0.2c0.1,0,0.1,0,0.2,0c0.2-0.1,0.3-0.2,0.2-0.4
					c-0.4-1.8-1.9-2.3-2-2.3c-0.2-0.1-0.4,0-0.4,0.2C286.1,152.3,286.2,152.5,286.3,152.5z"/>
				<path class="st3" d="M278.6,151.4c0.2,0,0.3-0.1,0.4-0.3c0-0.2-0.1-0.3-0.3-0.4c0,0-0.2,0-0.5,0c-0.3,0-0.7,0.2-1.2,0.4
					c-0.4,0.2-0.8,0.5-1.1,1c-0.1,0.1-0.1,0.4,0,0.5c0.1,0,0.1,0.1,0.2,0.1c0.1,0,0.2,0,0.3-0.1c0.2-0.2,0.3-0.4,0.5-0.5
					c0.3-0.2,0.5-0.4,0.8-0.5C278.2,151.4,278.6,151.4,278.6,151.4z"/>
				<path class="st22" d="M285.1,184.1c-1.2,0.7-2.8,2-3.8,3c0,0,0,0,0,0h6.4C287.2,185.9,286.2,184.9,285.1,184.1z"/>
				<path class="st22" d="M281.7,182.8C281.7,182.7,281.7,182.7,281.7,182.8C281.7,182.7,281.6,182.7,281.7,182.8
					C281.6,182.7,281.6,182.7,281.7,182.8z"/>
				<path class="st22" d="M278,183.6c-1.7,0.8-3.3,2-4.3,3.5h5.1c0.1-0.1,0.2-0.3,0.3-0.4C278.7,185.9,278.3,184.9,278,183.6z"/>
				<path class="st3" d="M281.2,187.1L281.2,187.1C281.3,187.1,281.3,187.1,281.2,187.1C281.3,187.1,281.3,187.1,281.2,187.1z"/>
				<path class="st3" d="M278.8,187.1h0.5c-0.1-0.1-0.1-0.3-0.2-0.4C279,186.9,278.9,187,278.8,187.1z"/>
				<path class="st3" d="M285.1,184.1c-1-0.7-2.2-1.2-3.4-1.4c-1.2,0-2.5,0.3-3.7,0.9c0.3,1.2,0.7,2.3,1.1,3.1
					c0.1,0.2,0.1,0.3,0.2,0.4h2c0,0,0,0,0,0C282.3,186.2,283.9,184.9,285.1,184.1z"/>
				<path class="st23" d="M296.6,180.1c0-0.1,0-0.1,0-0.1s-1.5-1.2-4.1-1.7c0,0,0,0,0,0c0,0-6.5,3.8-10.8,4.5c0,0,0,0,0,0
					c1.2,0.2,2.4,0.7,3.4,1.4c1.1,0.8,2.1,1.8,2.6,3h3.4C295.9,184.8,296.5,180.8,296.6,180.1z"/>
				<path class="st23" d="M278,183.6c1.2-0.5,2.5-0.9,3.7-0.9c0,0,0,0-0.1,0c-4.2-0.7-1.1-4-1.1-4c0,0,0,0,0,0
					c-2.7,0.5-4.5,1.3-4.5,1.3s-0.3,0.2-0.8,0.5c-1.7,1.2-5.4,4.4-1.9,6.6h0.4C274.7,185.6,276.3,184.4,278,183.6z"/>
			</g>
			<g>
				<path class="st3" d="M339.1,153.1L339.1,153.1c0.6-1.1,1.3-2.1,2.1-3.1c-0.3,0.1-0.7,0.3-1,0.6c-0.1,0.1-0.2,0.1-0.3,0.1
					c-0.1,0-0.2,0-0.2-0.1c-0.1-0.1-0.1-0.4,0.1-0.5c0.8-0.7,1.6-0.9,2.2-1c1.4-1.6,3-2.8,4.9-3.6c-0.3-0.7-0.5-1.4-0.5-2
					c-3.3,0.7-6.4,2.1-8.6,4.3c-4.3,4.4-2.9,9.3-1.3,13.1C336.8,158.5,337.7,155.7,339.1,153.1C339.1,153.1,339.1,153.1,339.1,153.1
					z"/>
				<path class="st3" d="M362.2,154.7c0.2,1.2,0,2.5-0.6,3.8c0.6,1.2,0.7,2.7,0.1,4.4c-1,2.9-3.6,4.9-5.8,4.4
					c-0.7-0.2-1.2-0.5-1.6-1c-0.9,1.1-1.9,2-3.2,2.9c-0.4,1.9-0.6,3.9-0.5,5.7c9.3-0.7,13.9-6.1,15.1-12.5
					c1.2-6.7,0.6-10.9-1.5-12.2C364.7,152.5,364.2,154.4,362.2,154.7z"/>
				<path class="st3" d="M343.3,172c0-0.2,0-0.3,0-0.5c0-0.1,0-0.1,0-0.2c-2.5-0.3-4.7-1.5-6-3.5c-1.8,1.6-5.6,2.2-5.6,2.2
					s3.2,3.4,11.4,4.6c0.1-0.5,0.2-1,0.2-1.6C343.3,172.7,343.3,172.3,343.3,172z"/>
				<path class="st2" d="M344.5,187.1h22.5c0-4-6.5-7.6-10.6-8c-0.9-0.1-1.8-0.2-2.7-0.2c0,0,0.1,0,0.1,0.1
					C351.7,182,346,186.1,344.5,187.1z"/>
				<path class="st2" d="M340.5,182.6c-0.6,0.3-1.3,0.7-1.9,1.1c-0.4-0.6-0.7-1.1-0.8-1.6c0,0,0,0,0,0s-2.3,0.5-3.7,3.7
					c-0.2-4.5,1.2-6.1,2.1-6.7c-0.6,0.1-1.2,0.1-1.8,0.2c-4.3,0.6-9.7,3.8-11.8,7.8H344C343.8,186.2,343,183,340.5,182.6z"/>
				<path class="st24" d="M343.3,172c0-0.2,0-0.3,0-0.5C343.3,171.7,343.3,171.8,343.3,172z"/>
				<path class="st24" d="M351,169.2c-0.4,0.2-0.7,0.5-1.1,0.7c-1,0.5-1.9,0.9-2.9,1.1c-1.1,1-2.6,1.9-3.7,2c0,0,0,0,0-0.1
					c0,0.5-0.1,1.1-0.2,1.6c-0.4,1.6-1.4,3.1-3.6,3.9c0,0,0,0,0,0c-2.2,1.1-1.8,3.3-1.7,3.6c0.2,0.5,0.4,1,0.8,1.6
					c0.7-0.4,1.3-0.8,1.9-1.1c0,0,0,0,0,0c1.6-1.5,9.1-4.6,10.5-5.2c-0.3-0.7-0.5-1.6-0.5-2.6C350.4,173.1,350.6,171.1,351,169.2z"
					/>
				<path class="st8" d="M340.5,182.6C340.5,182.6,340.5,182.6,340.5,182.6c2.5,0.4,3.3,3.6,3.5,4.5h0.4c1.5-1.1,7.2-5.2,9.3-8.2
					c0,0-0.1,0-0.1-0.1c-1-0.6-2.4-1.6-2.4-1.6s-0.1,0-0.2,0.1C349.6,178,342.1,181.1,340.5,182.6z"/>
				<path class="st8" d="M334.1,185.9c1.3-3.2,3.7-3.7,3.7-3.7s0,0,0,0c-0.1-0.3-0.5-2.5,1.7-3.6c0,0,0,0,0,0
					c-1.7-0.3-2.6,0.4-2.6,0.4s-0.3,0.1-0.7,0.3C335.3,179.7,333.9,181.4,334.1,185.9z"/>
				<path class="st3" d="M343.3,172c0,0.3,0,0.7,0,1C343.3,172.7,343.3,172.3,343.3,172z"/>
				<path class="st4" d="M343.3,172c0,0.3,0,0.7,0,1C343.3,172.7,343.3,172.3,343.3,172z"/>
				<path class="st3" d="M343.2,171.3c0,0.1,0,0.1,0,0.2C343.2,171.5,343.2,171.4,343.2,171.3C343.2,171.3,343.2,171.3,343.2,171.3z
					"/>
				<path class="st4" d="M343.2,171.3c0,0.1,0,0.1,0,0.2C343.2,171.5,343.2,171.4,343.2,171.3C343.2,171.3,343.2,171.3,343.2,171.3z
					"/>
				<path class="st24" d="M343.2,171.3c0,0.1,0,0.1,0,0.2c0,0.2,0,0.3,0,0.5c0,0.3,0,0.7,0,1c0,0,0,0,0,0.1c1.1-0.2,2.6-1,3.7-2
					C345.7,171.4,344.4,171.5,343.2,171.3z"/>
				<path class="st4" d="M343.2,171.3c0,0.1,0,0.1,0,0.2c0,0.2,0,0.3,0,0.5c0,0.3,0,0.7,0,1c0,0,0,0,0,0.1c1.1-0.2,2.6-1,3.7-2
					C345.7,171.4,344.4,171.5,343.2,171.3z"/>
				<path class="st24" d="M343.2,171.3C343.2,171.3,343.2,171.3,343.2,171.3c1.2,0.1,2.5,0,3.8-0.3c0.9-0.2,1.9-0.6,2.9-1.1
					c0.4-0.2,0.8-0.5,1.1-0.7c1.3-0.9,2.4-1.8,3.2-2.9c-1-1.2-1.4-3.2-0.7-5.3c0.2-0.6,0.5-1.1,0.8-1.6c-1-1.8-1.5-4.2-0.9-6.6
					c-2.4-1.4-4.6-3.5-6.3-6.5c-0.1-0.2-0.2-0.5-0.3-0.7c-1.8,0.8-3.5,2-4.9,3.6c0.6-0.1,1,0,1,0c0.2,0,0.3,0.2,0.2,0.4
					c-0.1,0.2-0.3,0.3-0.5,0.3c0,0-0.7-0.1-1.5,0.2c-0.8,1-1.4,2-2,3.1l1.2,0.7c0,0,0,0,0,0c0.3,0.2,0.3,0.6,0.1,1.1
					c-0.2,0.6-0.7,1-1.1,0.9c-0.4-0.1-0.5-0.6-0.3-1.2c0.1-0.3,0.3-0.6,0.6-0.7c-0.3-0.2-0.5-0.6-0.5-0.7c-1.4,2.6-2.4,5.3-2.8,7.8
					c-0.1,0.5-0.2,0.9-0.2,1.4c-0.3,2.1,0.2,4,1.2,5.5C338.5,169.8,340.7,171.1,343.2,171.3z M348.9,157.7c0,0,1.5-0.1,2.3,0.9
					C349.8,158.4,348.9,157.7,348.9,157.7z M351.7,157.3c-1.5,0.1-2.7-0.3-2.7-0.3S350.6,156.5,351.7,157.3z M347.5,152
					c0.1,0,1.7,0,2.6,1.6c0.1,0.2,0,0.4-0.2,0.5c-0.1,0.1-0.2,0.1-0.3,0.1c-0.1,0-0.2-0.1-0.2-0.1c-0.7-1.3-2-1.3-2-1.3
					c-0.2,0-0.3-0.2-0.3-0.3C347.1,152.2,347.3,152,347.5,152z M346.1,156.4c0.1-0.3,0.3-0.6,0.6-0.7c-0.4-0.2-0.5-0.8-0.5-0.8
					l1.2,0.8c0,0,0,0,0,0c0.3,0.2,0.3,0.6,0.1,1.1c-0.2,0.6-0.7,1-1.1,0.9C346,157.5,345.9,157,346.1,156.4z M346.3,162.2
					c0.1-0.1,0.2-0.1,0.2,0c0.1,0.1,0,0.2,0,0.2c-0.1,0.1-1.6,1.2-3.7,1.1c-0.3,0-0.6-0.1-1-0.2c-0.1,0-0.1-0.1-0.1-0.2
					c0-0.1,0.1-0.1,0.2-0.1C344.5,163.7,346.3,162.2,346.3,162.2z M342,156.5l-1.6,4.1c0,0-1.4,0-1.9-0.9
					C340.1,158.7,342,156.5,342,156.5z"/>
				<path class="st3" d="M361.5,158.6c0.6-1.3,0.8-2.7,0.6-3.8c-0.2,0-0.5,0.1-0.8,0.1c-0.1,0-0.1,0-0.2,0c-0.2,0.8-0.4,1.6-0.7,2.4
					C360.9,157.6,361.3,158,361.5,158.6z"/>
				<path class="st25" d="M361.5,158.6c0.6-1.3,0.8-2.7,0.6-3.8c-0.2,0-0.5,0.1-0.8,0.1c-0.1,0-0.1,0-0.2,0
					c-0.2,0.8-0.4,1.6-0.7,2.4C360.9,157.6,361.3,158,361.5,158.6z"/>
				<path class="st24" d="M357.3,156.8C357.3,156.8,357.3,156.8,357.3,156.8c0.3-0.8,0.5-1.5,0.7-2.3c-1.6-0.3-3.1-0.9-4.6-1.7
					c-0.6,2.4-0.1,4.8,0.9,6.6C355.1,158.1,356.2,157.2,357.3,156.8z"/>
				<path class="st25" d="M357.3,156.8C357.3,156.8,357.3,156.8,357.3,156.8c0.3-0.8,0.5-1.5,0.7-2.3c-1.6-0.3-3.1-0.9-4.6-1.7
					c-0.6,2.4-0.1,4.8,0.9,6.6C355.1,158.1,356.2,157.2,357.3,156.8z"/>
				<path class="st24" d="M348.9,157c0,0,1.2,0.4,2.7,0.3C350.6,156.5,348.9,157,348.9,157z"/>
				<path class="st4" d="M348.9,157c0,0,1.2,0.4,2.7,0.3C350.6,156.5,348.9,157,348.9,157z"/>
				<path class="st24" d="M348.9,157.7c0,0,0.9,0.7,2.3,0.9C350.4,157.5,348.9,157.7,348.9,157.7z"/>
				<path class="st4" d="M348.9,157.7c0,0,0.9,0.7,2.3,0.9C350.4,157.5,348.9,157.7,348.9,157.7z"/>
				<path class="st3" d="M346.3,157.6c0.4,0.1,0.8-0.3,1.1-0.9c0.2-0.5,0.1-1-0.1-1.1c-0.3,0.1-0.5,0.1-0.6,0
					c-0.2,0.2-0.4,0.4-0.6,0.7C345.9,157,346,157.5,346.3,157.6z"/>
				<path class="st3" d="M339.7,153.9c-0.2,0.2-0.4,0.4-0.6,0.7c-0.2,0.6-0.1,1.1,0.3,1.2c0.4,0.1,0.8-0.3,1.1-0.9
					c0.2-0.5,0.1-1-0.1-1.1C340,154,339.8,154,339.7,153.9z"/>
				<path class="st3" d="M339.1,153.2c0,0.2,0.2,0.6,0.5,0.7c0.2,0.1,0.4,0.1,0.6,0c0,0,0,0,0,0L339.1,153.2L339.1,153.2
					C339.1,153.1,339.1,153.1,339.1,153.2z"/>
				<path class="st26" d="M340.4,160.5l1.6-4.1c0,0-1.9,2.2-3.4,3.1C339,160.5,340.4,160.5,340.4,160.5z"/>
				<path class="st3" d="M341.8,163.1c0,0.1,0,0.2,0.1,0.2c0.3,0.1,0.7,0.1,1,0.2c2.1,0.2,3.6-1,3.7-1.1c0.1-0.1,0.1-0.2,0-0.2
					c-0.1-0.1-0.2-0.1-0.2,0c0,0-1.9,1.5-4.3,0.8C341.9,163,341.8,163,341.8,163.1z"/>
				<path class="st3" d="M347.4,152.7c0,0,1.3,0,2,1.3c0,0.1,0.1,0.1,0.2,0.1c0.1,0,0.2,0,0.3-0.1c0.2-0.1,0.2-0.3,0.2-0.5
					c-0.9-1.6-2.5-1.6-2.6-1.6c-0.2,0-0.4,0.2-0.4,0.4C347,152.6,347.2,152.7,347.4,152.7z"/>
				<path class="st3" d="M339.6,150.7c0.1,0.1,0.1,0.1,0.2,0.1c0.1,0,0.2,0,0.3-0.1c0.4-0.3,0.7-0.5,1-0.6c0.8-0.3,1.4-0.2,1.5-0.2
					c0.2,0,0.4-0.1,0.5-0.3c0.1-0.2,0-0.4-0.2-0.4c0,0-0.4-0.1-1,0c-0.6,0.1-1.4,0.3-2.2,1C339.6,150.3,339.5,150.5,339.6,150.7z"/>
				<path class="st3" d="M347.3,155.6C347.3,155.6,347.3,155.6,347.3,155.6l-1.2-0.8c0,0,0.1,0.6,0.5,0.8
					C346.8,155.7,347,155.7,347.3,155.6z"/>
				<path class="st3" d="M361.2,154.8c0.1,0,0.1,0,0.2,0c0.3,0,0.5,0,0.8-0.1c2-0.4,2.6-2.3,1.9-4.6c-0.5-1.7-1.7-3.7-3.4-5.5
					C361.7,146.6,362.2,150.4,361.2,154.8z"/>
				<path class="st3" d="M347.1,146.3c1.7,3,3.9,5.1,6.3,6.5c1.5,0.9,3.1,1.4,4.6,1.7c1.2-4.6,1.5-9.7-1-12.7
					c-5.5-3.3-11.1-2.3-10.8,1.8c0,0.6,0.2,1.3,0.5,2C346.9,145.8,347,146,347.1,146.3z"/>
				<path class="st2" d="M355.8,167.3c2.2,0.5,4.9-1.4,5.8-4.4c0.5-1.6,0.4-3.2-0.1-4.4c-0.2-0.5-0.6-1-1-1.3c0,0.1-0.1,0.3-0.1,0.4
					c-2.3,0.8-3-0.8-3-0.9c-1.2,0.4-2.3,1.3-3.1,2.6c-0.3,0.5-0.6,1-0.8,1.6c-0.7,2.1-0.3,4.1,0.7,5.3
					C354.6,166.8,355.2,167.1,355.8,167.3z M360.3,158.4c1.3,0.2,1.7,2.2,0.9,4.5c-0.8,2.3-2.6,3.9-3.9,3.7
					c-1.3-0.2-1.7-2.2-0.9-4.5C357.3,159.9,359,158.2,360.3,158.4z"/>
				<path class="st2" d="M356.4,162.1c-0.8,2.3-0.4,4.3,0.9,4.5c1.3,0.2,3-1.5,3.9-3.7c0.8-2.3,0.4-4.3-0.9-4.5
					C359,158.2,357.3,159.9,356.4,162.1z"/>
				<path class="st15" d="M356.4,162.1c-0.8,2.3-0.4,4.3,0.9,4.5c1.3,0.2,3-1.5,3.9-3.7c0.8-2.3,0.4-4.3-0.9-4.5
					C359,158.2,357.3,159.9,356.4,162.1z"/>
				<path class="st2" d="M358,154.5c-0.2,0.8-0.4,1.5-0.7,2.3c0,0,0,0,0,0c0,0.1,0.8,1.7,3,0.9c0.1-0.1,0.1-0.3,0.1-0.4
					c0.3-0.8,0.5-1.6,0.7-2.4c1-4.4,0.5-8.2-0.6-10.2c0,0,0,0,0,0c0,0-2.2-2.7-3.6-2.9c0,0,0,0,0,0
					C359.5,144.8,359.3,149.9,358,154.5z"/>
			</g>
		</g>
	</g>
	<g>
		<path class="st2" d="M253.5,201.1h14.8c1.2,0,2.1,0.9,2.1,2.1v18.6c0,1.2-0.9,2.1-2.1,2.1h-14.8c-1.2,0-2.1-0.9-2.1-2.1v-18.6
			C251.4,202.1,252.3,201.1,253.5,201.1z"/>
		<path class="st2" d="M254.6,220.6c-4.5,0-8.1-3.6-8.1-8.1s3.6-8.1,8.1-8.1c4.5,0,8.1,3.6,8.1,8.1S259.1,220.6,254.6,220.6z
			 M254.6,205.5c-3.9,0-7,3.1-7,7c0,3.9,3.1,7,7,7c3.9,0,7-3.1,7-7C261.6,208.6,258.5,205.5,254.6,205.5z"/>
	</g>
</g>
<g>
	<g>
		<g>
			<g>
				<g>
					<polygon class="st16" points="239,409.3 252.8,408 243.5,373.9 229.7,375.2 					"/>
					<path class="st3" d="M269.8,417.6c-8.4-2.7-8-6.4-16.3-13.4c-0.9-0.8-1.9-1.3-3-1.4l-13.7-1.2c-0.5,0-1,0.3-1.1,0.9l-2.1,9.5
						c-0.7,3.3,1.2,6.5,4.1,6.7c4.6,0.3,10.2,0.6,15.2,1c7.3,0.7,7.3,4.4,15.9,4.1C273.8,423.6,272.6,418.6,269.8,417.6z"/>
					<g>
						<path class="st2" d="M156.6,259.5c0,0,77.8-2.3,78.4,25.2c1.1,45.6,15.1,110.8,15.1,110.8l-15.3,1.4c0,0-23.2-51.9-29.3-96.5
							c-27.7,1.8-53.3,0.6-73.7,0.6c-22.9,0-24.8-25.2-2.5-54.6C142.9,246.4,156.6,259.5,156.6,259.5z"/>
						<path class="st27" d="M156.6,259.5c0,0,77.8-2.3,78.4,25.2c1.1,45.6,15.1,110.8,15.1,110.8l-15.3,1.4c0,0-23.2-51.9-29.3-96.5
							c-27.7,1.8-53.3,0.6-73.7,0.6c-22.9,0-24.8-25.2-2.5-54.6C142.9,246.4,156.6,259.5,156.6,259.5z"/>
					</g>
					<polygon class="st2" points="251.6,396.4 234.1,398.5 230.2,388.5 250.1,382.2 					"/>
					<path class="st16" d="M130.1,126.3c1.4,8.6,2.6,24.3-3.5,29.9c0,0,15,7.9,24.9,21.6c10.5-8.3,1.7-20.8,1.7-20.8
						c-9.5-2.6-9-9.6-7.2-16.2L130.1,126.3z"/>
					<path class="st2" d="M121.8,158.9c-0.5-5.9-2.8-8.6-2.8-8.6s23.6-2,36.7,3c2.6,5,4.9,10.3,4.9,10.3L121.8,158.9z"/>
					<path class="st3" d="M178.5,179.5c-0.9,12.4-3.7,33.4-10.5,68.7l-58.5-1.7c1.5-21.6-0.8-37.7-6.1-75.5c-1-6.9,4-13.2,10.9-13.9
						c3.8-0.4,8-0.7,12.3-0.8c9.9-0.2,17.9-0.3,26.6,0.8c2.9,0.3,5.8,0.8,8.6,1.3C172,160,179.2,169.2,178.5,179.5z"/>
					<path class="st3" d="M160.6,113.2c0.2,1.2,0.9,2,1.6,1.9c0.8-0.1,1.2-1.1,1.1-2.3c-0.2-1.2-0.9-2-1.6-1.9
						C161,111.1,160.5,112.1,160.6,113.2z"/>
					<path class="st3" d="M161.4,111.1l2.7-1.2C164.1,109.9,162.9,112.3,161.4,111.1z"/>
					<path class="st17" d="M161.1,115c0,0,2.6,4.7,5.1,6.8c-1.3,1.6-4,1.3-4,1.3L161.1,115z"/>
					<path class="st3" d="M160.6,103.1c0.1-0.2,0.1-0.5,0-0.7c-0.2-0.3-0.6-0.5-0.9-0.3c-3.4,1.7-3.8,4.8-3.8,4.9
						c0,0.4,0.2,0.7,0.6,0.8c0.4,0,0.7-0.2,0.8-0.6l0,0c0-0.1,0.4-2.5,3.1-3.9C160.5,103.3,160.5,103.2,160.6,103.1z"/>
					<path class="st16" d="M120.8,113.6c2.8,14,3.7,20,11.8,26.3c12.2,9.5,28.9,2.9,30.3-11.6c1.3-13.1-3.5-33.9-18.1-37.6
						C130.4,87,118,99.6,120.8,113.6z"/>
					<path class="st3" d="M151.3,117.7c3.2,12.9-6.2,16.6-6.2,16.6c2.8,5.3-4.4,16.9-18.2,10.1c-12.3-6.1-4.9-14.9-4.9-14.9
						s-9.8-2.2-13.6-16.4c-3.8-14.3,4.5-24.4,19.1-27.9c14.6-3.5,22.9,0.1,25.5,6.7c2.8-2.8,9.7,1.7,9,7.8
						c-4.8,5.9-12.9,5.3-12.9,5.3S162.3,113.8,151.3,117.7z"/>
					<path class="st3" d="M117.5,91.1c4.6-7.7-24.2-34.7-40.6-3.6c-16.4,31.1,6.1,31.9,9,53.2c22.2-16.2,16.7-45.1,12.2-52
						C110.1,88.3,112.2,100.3,117.5,91.1z"/>
					<path class="st2" d="M110.6,96.3c-4.1-4.1-8.4-3.7-7.2-6.2c1.2-2.6,8.1-8.4,6.9-12.2c6.6,0.8,10.4,7.2,11.6,11.5
						c0.5,1.6,0.1,3.3-0.9,4.6C117.4,98.4,113.6,100.2,110.6,96.3z"/>
					<path class="st16" d="M146.7,117.9c0.9,3.1,3.1,5.4,5.4,6.6c3.5,1.8,6-1.1,5.8-4.8c-0.3-3.3-2.4-8.3-6.2-8.6
						C148,110.8,145.7,114.4,146.7,117.9z"/>
					<polygon class="st16" points="273.6,369.7 284.5,363.8 274.3,337.1 260.5,345.4 					"/>
					<path class="st3" d="M283.1,358.3L270,366c-0.5,0.3-0.7,0.9-0.5,1.5l3.4,9.2c1.2,3.2,4.8,4.1,7.9,2.7c4.2-2,7.3-6.4,12.4-9.4
						c7.4-4.4,8.5-4,14.1-11.2c3.8-4.9-1.8-6.1-4.2-4.9c-5.9,3.1-4,3.7-16.2,3.6C285.6,357.4,284.2,357.6,283.1,358.3z"/>
					<g>
						<path class="st2" d="M147.6,247.2c0,0,94.8-14,104.6,10.3c17.1,42.3,27.9,95.1,27.9,95.1l-12.5,8.4c0,0-27.1-41.5-41.8-83.9
							c-17.6,5.7-73.4,24-93.9,24c-21.9,0-30.8-18.6-22.9-49.6c0.7-2.8,3.2-4.7,6.1-4.7C128.7,246.8,147.6,247.2,147.6,247.2z"/>
						<path class="st11" d="M147.6,247.2c0,0,94.8-14,104.6,10.3c17.1,42.3,27.9,95.1,27.9,95.1l-12.5,8.4c0,0-27.1-41.5-41.8-83.9
							c-17.6,5.7-73.4,24-93.9,24c-21.9,0-30.8-18.6-22.9-49.6c0.7-2.8,3.2-4.7,6.1-4.7C128.7,246.8,147.6,247.2,147.6,247.2z"/>
					</g>
					<polygon class="st2" points="281.6,352.5 266.3,362.4 260.5,353.4 279.4,337.7 					"/>
					<path class="st8" d="M108.7,243l-1.7,5.2c-0.2,0.4,0.3,0.8,0.9,0.8l60.2,1.8c0.5,0,1-0.2,1-0.6l0.7-5.2c0-0.4-0.4-0.7-1-0.7
						l-59.3-1.8C109.2,242.6,108.8,242.7,108.7,243z"/>
					<g>
						<path class="st16" d="M177.1,182.5l3.7,9.7c1.3,3.2,2.6,6.5,3.9,9.7c2.7,6.4,5.4,12.7,8.6,18.4l0.3,0.5c0,0,0.1,0.1,0.1,0.1
							c-0.1-0.2-0.2-0.3-0.3-0.4c-0.2-0.3-0.5-0.5-0.8-0.8c-0.3-0.2-0.6-0.4-0.8-0.6c-0.3-0.2-0.5-0.3-0.8-0.4
							c-0.1,0-0.3-0.1-0.4-0.1c-0.1,0-0.2-0.1-0.3-0.1c-0.1,0-0.2,0-0.3-0.1l-0.2,0c-0.3,0-0.4,0-0.5,0c0,0-0.1,0-0.1,0
							c0,0,0.2,0,0.4,0c0.9-0.1,2.3-0.5,3.7-1.1c2.9-1.1,6-2.5,9.1-4.1c6.2-3,12.4-6.5,18.7-9.8l0.1,0c2.1-1.1,4.7-0.3,5.8,1.8
							c0.9,1.7,0.5,3.8-0.8,5.1c-5.3,5.1-10.9,9.7-17,14.1c-3.1,2.1-6.2,4.3-9.8,6.1c-1.8,0.9-3.7,1.9-6.3,2.6
							c-0.7,0.2-1.4,0.3-2.3,0.4c-0.4,0.1-0.9,0.1-1.4,0.1c-0.6,0-1.1,0-1.8-0.1l-0.5-0.1l-0.6-0.1l-0.6-0.2
							c-0.2-0.1-0.4-0.2-0.7-0.2c-0.4-0.2-0.9-0.4-1.4-0.7c-0.5-0.3-0.9-0.6-1.4-1c-0.5-0.4-0.9-0.8-1.2-1.3
							c-0.2-0.2-0.4-0.5-0.5-0.7l-0.1-0.2l-0.4-0.6c-2.3-3.3-4.2-6.5-6-9.8c-1.8-3.3-3.4-6.6-5-10c-1.6-3.3-3-6.7-4.4-10.1
							c-1.4-3.4-2.7-6.8-3.9-10.4c-1.5-4.5,1-9.4,5.5-10.9c4.4-1.4,9.1,0.8,10.8,5.1L177.1,182.5z"/>
						<path class="st3" d="M169.8,161.5c13.5,9.9,14.5,31.9,14.5,31.9L158,209.3c0,0-7.1-18.1-3.2-31.5
							C157.5,167.9,164.2,157.4,169.8,161.5z"/>
						<path class="st16" d="M242.7,209.1l-5.5,3c-1.4,0.8-2.9,1-4.5,0.8l-5.9-0.9c-3.8-0.6-7.2-2.4-9.8-5.3l0,0
							c1-5.6,10.4-5.7,10.4-5.7l7-3c1.1-0.5,2.5-0.2,3.3,0.6l5.6,5.6C244.8,205.8,244.4,208.2,242.7,209.1z"/>
					</g>
				</g>
			</g>
		</g>
	</g>
	<g>
		<path class="st2" d="M197.1,308.6c-1.4-9.8-10.4-17.7-20.1-17.7h-17.7l-14.6-104.1c-1.2-8.5-9-15.4-17.5-15.4H64.9
			c-8.5,0-14.4,6.9-13.2,15.4l13.4,95.9c2.1,14.7,15.7,26.7,30.4,26.7h1.3h65.1h35.3L197.1,308.6z"/>
		<path class="st2" d="M187.8,303.9c-1.4,0-2.7-0.9-3.1-2.3l-7.1-22.5c-1.8-5.7-7-9.6-13.1-9.6h-17.4c-1.8,0-3.2-1.4-3.2-3.2
			c0-1.8,1.4-3.2,3.2-3.2h17.4c8.8,0,16.6,5.7,19.2,14.1l7.1,22.5c0.5,1.7-0.4,3.5-2.1,4.1C188.5,303.8,188.2,303.9,187.8,303.9z"/>
		<g>
			<g>
				<polygon class="st2" points="130.8,422.7 117.7,422.7 117.8,309.4 130.7,309.4 				"/>
				<polygon class="st11" points="130.8,422.7 117.7,422.7 117.8,309.4 130.7,309.4 				"/>
			</g>
			<polygon class="st9" points="130.7,315.2 117.8,318.4 117.8,309.4 130.7,309.4 			"/>
		</g>
		<path class="st3" d="M124.2,419.9c-13.2,0-24,2.4-24,3.9h47.9C148.2,422.2,137.5,419.9,124.2,419.9z"/>
	</g>
</g>
</svg>
